STARTFONT 2.1
COMMENT 
COMMENT Id: cu-alt12.bdf,v 1.12 2002/11/22 22:46:24 mleisher Exp $
COMMENT 
COMMENT Copyright 2002 Computing Research Labs, New Mexico State University
COMMENT 
COMMENT Permission is hereby granted, free of charge, to any person
COMMENT obtaining a copy of this software and associated documentation
COMMENT files (the "Software"), to deal in the Software without
COMMENT restriction, including without limitation the rights to use,
COMMENT copy, modify, merge, publish, distribute, sublicense, and/or
COMMENT sell copies of the Software, and to permit persons to whom the
COMMENT Software is furnished to do so, subject to the following
COMMENT conditions:
COMMENT 
COMMENT The above copyright notice and this permission notice shall be
COMMENT included in all copies or substantial portions of the Software.
COMMENT 
COMMENT THE SOFTWARE IS PROVIDED "AS IS", WITHOUT WARRANTY OF ANY KIND,
COMMENT EXPRESS OR IMPLIED, INCLUDING BUT NOT LIMITED TO THE WARRANTIES
COMMENT OF MERCHANTABILITY, FITNESS FOR A PARTICULAR PURPOSE AND
COMMENT NONINFRINGEMENT.  IN NO EVENT SHALL THE COMPUTING RESEARCH LAB
COMMENT OR NEW MEXICO STATE UNIVERSITY BE LIABLE FOR ANY CLAIM, DAMAGES
COMMENT OR OTHER LIABILITY, WHETHER IN AN ACTION OF CONTRACT, TORT OR
COMMENT OTHERWISE, ARISING FROM, OUT OF OR IN CONNECTION WITH THE
COMMENT SOFTWARE OR THE USE OR OTHER DEALINGS IN THE SOFTWARE.
COMMENT 
COMMENT This font contains alternate glyphs for Arabic and Georgian blocks.
COMMENT Some have been added to the Private Use Area as well.
COMMENT 
FONT -MUTT-ClearlyU Alternate Glyphs-Medium-R-Normal--17-120-100-100-P-122-ISO10646-1
SIZE 12 100 100
FONTBOUNDINGBOX 21 24 -1 -7
STARTPROPERTIES 21
COPYRIGHT "2001 Computing Research Lab, New Mexico State University."
POINT_SIZE 120
PIXEL_SIZE 17
RESOLUTION_X 100
RESOLUTION_Y 100
FONT_ASCENT 12
FONT_DESCENT 6
AVERAGE_WIDTH 122
SPACING "P"
FOUNDRY "MUTT"
FAMILY_NAME "ClearlyU Alternate Glyphs"
WEIGHT_NAME "Medium"
SLANT "R"
SETWIDTH_NAME "Normal"

STARTCHAR char0
ENCODING -1
SWIDTH 0 0
DWIDTH 0 0
BBX 0 0 0 0
BITMAP
ENDCHAR
STARTCHAR char0
ENCODING -1
SWIDTH 0 0
DWIDTH 0 0
BBX 0 0 0 0
BITMAP
ENDCHAR
STARTCHAR char0
ENCODING -1
SWIDTH 0 0
DWIDTH 0 0
BBX 0 0 0 0
BITMAP
ENDCHAR
STARTCHAR char0
ENCODING -1
SWIDTH 0 0
DWIDTH 0 0
BBX 0 0 0 0
BITMAP
ENDCHAR
STARTCHAR char0
ENCODING -1
SWIDTH 0 0
DWIDTH 0 0
BBX 0 0 0 0
BITMAP
ENDCHAR
STARTCHAR char0
ENCODING -1
SWIDTH 0 0
DWIDTH 0 0
BBX 0 0 0 0
BITMAP
ENDCHAR
STARTCHAR char0
ENCODING 0
SWIDTH 0 0
DWIDTH 0 0
BBX 0 0 0 0
BITMAP
ENDCHAR
STARTCHAR uni010F
ENCODING 271
SWIDTH 420 0
DWIDTH 7 0
BBX 6 16 1 0
BITMAP
88
70
20
00
18
08
08
08
08
78
48
88
88
88
48
7C
ENDCHAR
STARTCHAR uni0123
ENCODING 291
SWIDTH 480 0
DWIDTH 8 0
BBX 7 14 0 -7
BITMAP
3E
48
48
48
70
40
7C
82
82
C6
38
10
08
38
ENDCHAR
STARTCHAR C076
ENCODING 317
SWIDTH 600 0
DWIDTH 10 0
BBX 8 15 0 0
BITMAP
44
38
10
00
F8
20
20
20
20
20
21
21
21
23
FF
ENDCHAR
STARTCHAR C108
ENCODING 318
SWIDTH 240 0
DWIDTH 4 0
BBX 5 16 0 0
BITMAP
88
70
20
00
60
20
20
20
20
20
20
20
20
20
20
70
ENDCHAR
STARTCHAR uni015E
ENCODING 350
SWIDTH 480 0
DWIDTH 8 0
BBX 6 16 1 -5
BITMAP
7C
84
84
80
40
30
08
04
84
84
F8
00
30
30
10
20
ENDCHAR
STARTCHAR uni015F
ENCODING 351
SWIDTH 360 0
DWIDTH 6 0
BBX 5 12 1 -5
BITMAP
78
88
80
70
08
88
F0
00
30
30
10
20
ENDCHAR
STARTCHAR uni0162
ENCODING 354
SWIDTH 660 0
DWIDTH 11 0
BBX 9 16 1 -5
BITMAP
FF80
8880
8880
8880
0800
0800
0800
0800
0800
0800
3E00
0000
0C00
0C00
0400
0800
ENDCHAR
STARTCHAR uni0163
ENCODING 355
SWIDTH 360 0
DWIDTH 6 0
BBX 6 15 0 -5
BITMAP
20
20
20
F8
20
20
20
24
24
18
00
18
18
08
10
ENDCHAR
STARTCHAR C116
ENCODING 357
SWIDTH 360 0
DWIDTH 6 0
BBX 6 14 0 0
BITMAP
88
70
20
00
20
20
20
F8
20
20
20
24
24
18
ENDCHAR
STARTCHAR 0x03DE
ENCODING 990
SWIDTH 660 0
DWIDTH 11 0
BBX 9 14 1 -3
BITMAP
1C00
2200
4100
8080
8080
8080
8080
8080
4100
2200
1C00
0800
0800
1C00
ENDCHAR
STARTCHAR 0x03DF
ENCODING 991
SWIDTH 360 0
DWIDTH 6 0
BBX 5 10 1 -3
BITMAP
70
88
88
88
88
88
70
20
20
70
ENDCHAR
STARTCHAR 0x03E0
ENCODING 992
SWIDTH 540 0
DWIDTH 9 0
BBX 8 12 1 -1
BITMAP
E0
18
04
0A
12
23
45
89
11
22
E2
04
ENDCHAR
STARTCHAR 0x03E0
ENCODING 993
SWIDTH 420 0
DWIDTH 7 0
BBX 6 7 1 0
BITMAP
F0
18
64
8C
34
44
E8
ENDCHAR
STARTCHAR uni0431
ENCODING 1073
SWIDTH 360 0
DWIDTH 6 0
BBX 5 11 1 0
BITMAP
78
80
80
40
20
50
88
88
88
88
70
ENDCHAR
STARTCHAR 0x047C
ENCODING 1148
SWIDTH 780 0
DWIDTH 13 0
BBX 13 16 1 0
BITMAP
0F00
1080
2E40
2D30
0000
3060
4010
8008
8008
8708
8208
8208
8208
8208
4510
38E0
ENDCHAR
STARTCHAR 0x047D
ENCODING 1149
SWIDTH 600 0
DWIDTH 10 0
BBX 9 11 1 0
BITMAP
3800
4400
B300
A800
4100
8080
9C80
8880
8880
4900
3600
ENDCHAR
STARTCHAR 0x0483
ENCODING 1155
SWIDTH 660 0
DWIDTH 11 0
BBX 10 4 1 12
BITMAP
3C00
4200
B900
B4C0
ENDCHAR
STARTCHAR uni066B
ENCODING 1643
SWIDTH 360 0
DWIDTH 6 0
BBX 4 8 1 -2
BITMAP
10
10
20
20
40
40
80
80
ENDCHAR
STARTCHAR uni06C1
ENCODING 1729
SWIDTH 300 0
DWIDTH 5 0
BBX 4 6 1 0
BITMAP
20
30
50
90
90
60
ENDCHAR
STARTCHAR uni06C2
ENCODING 1730
SWIDTH 300 0
DWIDTH 5 0
BBX 4 11 1 0
BITMAP
30
40
30
40
00
20
30
50
90
90
60
ENDCHAR
STARTCHAR uni06C3
ENCODING 1731
SWIDTH 300 0
DWIDTH 5 0
BBX 4 10 1 0
BITMAP
50
50
00
00
20
30
50
90
90
60
ENDCHAR
STARTCHAR uni06F4
ENCODING 1780
SWIDTH 540 0
DWIDTH 9 0
BBX 7 10 1 0
BITMAP
72
FE
CC
48
60
60
20
20
20
20
ENDCHAR
STARTCHAR uni06F7
ENCODING 1783
SWIDTH 600 0
DWIDTH 10 0
BBX 8 8 1 1
BITMAP
03
0E
38
60
E0
78
1E
07
ENDCHAR
STARTCHAR uni0916
ENCODING 2326
SWIDTH 840 0
DWIDTH 14 0
BBX 14 11 0 0
BITMAP
FFFC
1020
1020
13A0
B660
E460
44E0
43A0
2020
1020
0820
ENDCHAR
STARTCHAR uni0959
ENCODING 2393
SWIDTH 840 0
DWIDTH 14 0
BBX 14 11 0 0
BITMAP
FFFC
1020
1020
13A0
B660
E460
44E0
43A0
2020
1120
0920
ENDCHAR
STARTCHAR uni096A
ENCODING 2410
SWIDTH 540 0
DWIDTH 9 0
BBX 6 10 3 1
BITMAP
88
84
84
48
30
30
68
48
58
30
ENDCHAR
STARTCHAR uni096B
ENCODING 2411
SWIDTH 420 0
DWIDTH 7 0
BBX 6 13 1 -2
BITMAP
84
84
84
84
4C
34
04
08
08
F0
F0
10
08
ENDCHAR
STARTCHAR uni096C
ENCODING 2412
SWIDTH 480 0
DWIDTH 8 0
BBX 6 17 2 -2
BITMAP
30
48
40
20
70
80
80
80
78
40
40
40
3C
3C
20
40
80
ENDCHAR
STARTCHAR uni096E
ENCODING 2414
SWIDTH 600 0
DWIDTH 10 0
BBX 9 10 1 -1
BITMAP
FF80
2000
4000
4000
4000
4000
2300
1C80
0080
0100
ENDCHAR
STARTCHAR uni096F
ENCODING 2415
SWIDTH 540 0
DWIDTH 9 0
BBX 6 11 2 0
BITMAP
60
90
88
40
60
90
80
80
40
30
0C
ENDCHAR
STARTCHAR uni10A0
ENCODING 4256
SWIDTH 480 0
DWIDTH 8 0
BBX 7 8 1 -1
BITMAP
92
FE
92
10
10
10
1E
02
ENDCHAR
STARTCHAR uni10A1
ENCODING 4257
SWIDTH 480 0
DWIDTH 8 0
BBX 7 10 1 -4
BITMAP
EE
44
44
44
44
3C
04
42
82
7C
ENDCHAR
STARTCHAR uni10A2
ENCODING 4258
SWIDTH 540 0
DWIDTH 9 0
BBX 8 11 1 -4
BITMAP
80
EC
32
22
22
22
72
02
21
41
3E
ENDCHAR
STARTCHAR uni10A3
ENCODING 4259
SWIDTH 480 0
DWIDTH 8 0
BBX 7 11 1 0
BITMAP
FE
92
10
10
10
38
44
82
82
44
38
ENDCHAR
STARTCHAR uni10A4
ENCODING 4260
SWIDTH 480 0
DWIDTH 8 0
BBX 8 10 1 -3
BITMAP
80
EC
32
22
22
22
72
02
02
07
ENDCHAR
STARTCHAR uni10A5
ENCODING 4261
SWIDTH 720 0
DWIDTH 12 0
BBX 12 10 1 -3
BITMAP
8000
ECC0
3320
2220
2220
2220
7270
0200
0200
0700
ENDCHAR
STARTCHAR uni10A6
ENCODING 4262
SWIDTH 480 0
DWIDTH 8 0
BBX 7 11 1 0
BITMAP
80
E0
20
20
20
3C
22
22
22
22
3C
ENDCHAR
STARTCHAR uni10A7
ENCODING 4263
SWIDTH 720 0
DWIDTH 12 0
BBX 11 6 1 0
BITMAP
D980
6640
4440
4440
4440
EEE0
ENDCHAR
STARTCHAR uni10A8
ENCODING 4264
SWIDTH 300 0
DWIDTH 5 0
BBX 4 7 1 0
BITMAP
80
E0
20
20
20
20
70
ENDCHAR
STARTCHAR uni10A9
ENCODING 4265
SWIDTH 480 0
DWIDTH 8 0
BBX 7 13 1 -3
BITMAP
E0
40
40
40
78
44
44
44
44
3C
04
04
0E
ENDCHAR
STARTCHAR uni10AA
ENCODING 4266
SWIDTH 780 0
DWIDTH 13 0
BBX 12 7 1 0
BITMAP
8000
ECC0
3320
2220
2220
2220
7770
ENDCHAR
STARTCHAR uni10AB
ENCODING 4267
SWIDTH 360 0
DWIDTH 6 0
BBX 5 11 1 0
BITMAP
20
38
08
08
08
18
68
88
88
88
70
ENDCHAR
STARTCHAR uni10AC
ENCODING 4268
SWIDTH 480 0
DWIDTH 8 0
BBX 7 11 1 0
BITMAP
F8
48
40
40
40
78
44
44
44
44
EE
ENDCHAR
STARTCHAR uni10AD
ENCODING 4269
SWIDTH 720 0
DWIDTH 12 0
BBX 11 6 1 0
BITMAP
EEE0
4440
4440
4440
4CC0
3360
ENDCHAR
STARTCHAR uni10AE
ENCODING 4270
SWIDTH 540 0
DWIDTH 9 0
BBX 8 7 1 0
BITMAP
80
E7
22
22
22
26
1B
ENDCHAR
STARTCHAR uni10AF
ENCODING 4271
SWIDTH 540 0
DWIDTH 9 0
BBX 8 10 1 -3
BITMAP
80
FC
22
22
22
22
1E
02
02
07
ENDCHAR
STARTCHAR uni10B0
ENCODING 4272
SWIDTH 720 0
DWIDTH 12 0
BBX 11 9 1 0
BITMAP
0E00
0400
0400
E580
4640
4440
4440
4C40
34E0
ENDCHAR
STARTCHAR uni10B1
ENCODING 4273
SWIDTH 480 0
DWIDTH 8 0
BBX 7 10 1 0
BITMAP
E0
40
40
40
4E
44
44
44
4C
36
ENDCHAR
STARTCHAR uni10B2
ENCODING 4274
SWIDTH 360 0
DWIDTH 6 0
BBX 6 10 1 -4
BITMAP
F0
88
88
88
88
F0
80
80
84
78
ENDCHAR
STARTCHAR uni10B3
ENCODING 4275
SWIDTH 960 0
DWIDTH 16 0
BBX 15 9 1 -3
BITMAP
EEEE
4444
4444
4444
4CCC
3334
0004
0004
000E
ENDCHAR
STARTCHAR uni10B4
ENCODING 4276
SWIDTH 420 0
DWIDTH 7 0
BBX 7 9 1 -3
BITMAP
7C
92
92
92
92
7C
10
10
38
ENDCHAR
STARTCHAR uni10B5
ENCODING 4277
SWIDTH 600 0
DWIDTH 10 0
BBX 9 13 1 -3
BITMAP
0800
0800
0800
C800
4900
4F00
7900
4900
0980
0800
0800
0800
1C00
ENDCHAR
STARTCHAR uni10B6
ENCODING 4278
SWIDTH 540 0
DWIDTH 9 0
BBX 8 7 1 0
BITMAP
80
EC
32
22
22
22
77
ENDCHAR
STARTCHAR uni10B7
ENCODING 4279
SWIDTH 540 0
DWIDTH 9 0
BBX 8 10 1 -3
BITMAP
80
EC
32
22
22
22
72
02
02
07
ENDCHAR
STARTCHAR uni10B8
ENCODING 4280
SWIDTH 420 0
DWIDTH 7 0
BBX 7 10 1 -4
BITMAP
EE
44
44
44
44
3C
04
44
84
78
ENDCHAR
STARTCHAR uni10B9
ENCODING 4281
SWIDTH 480 0
DWIDTH 8 0
BBX 7 13 1 -3
BITMAP
E0
40
40
40
58
64
44
44
44
4E
40
40
E0
ENDCHAR
STARTCHAR uni10BA
ENCODING 4282
SWIDTH 480 0
DWIDTH 8 0
BBX 7 10 1 -4
BITMAP
D8
64
44
44
44
4E
40
40
44
38
ENDCHAR
STARTCHAR uni10BB
ENCODING 4283
SWIDTH 660 0
DWIDTH 11 0
BBX 11 9 1 0
BITMAP
0E00
0400
0400
DD80
6640
4440
4440
4440
EEE0
ENDCHAR
STARTCHAR uni10BC
ENCODING 4284
SWIDTH 660 0
DWIDTH 11 0
BBX 11 9 1 -3
BITMAP
D980
6640
4440
4440
4440
4EE0
4000
4000
E000
ENDCHAR
STARTCHAR uni10BD
ENCODING 4285
SWIDTH 480 0
DWIDTH 8 0
BBX 7 9 1 -4
BITMAP
FC
44
44
4E
40
7C
02
82
7C
ENDCHAR
STARTCHAR uni10BE
ENCODING 4286
SWIDTH 420 0
DWIDTH 7 0
BBX 7 10 1 -4
BITMAP
EE
44
44
44
44
78
40
40
42
3C
ENDCHAR
STARTCHAR uni10BF
ENCODING 4287
SWIDTH 480 0
DWIDTH 8 0
BBX 7 10 1 -3
BITMAP
84
EA
32
14
08
14
22
40
50
20
ENDCHAR
STARTCHAR uni10C0
ENCODING 4288
SWIDTH 720 0
DWIDTH 12 0
BBX 12 7 1 0
BITMAP
8000
E770
2220
2220
2220
2660
19A0
ENDCHAR
STARTCHAR uni10C1
ENCODING 4289
SWIDTH 420 0
DWIDTH 7 0
BBX 7 13 1 -3
BITMAP
78
48
40
40
78
44
44
44
44
4E
40
40
E0
ENDCHAR
STARTCHAR uni10C2
ENCODING 4290
SWIDTH 420 0
DWIDTH 7 0
BBX 6 6 1 0
BITMAP
08
44
84
84
84
78
ENDCHAR
STARTCHAR uni10C3
ENCODING 4291
SWIDTH 480 0
DWIDTH 8 0
BBX 7 13 1 -3
BITMAP
0E
04
04
04
E4
44
44
44
44
3C
04
04
0E
ENDCHAR
STARTCHAR uni10C4
ENCODING 4292
SWIDTH 540 0
DWIDTH 9 0
BBX 9 9 1 -3
BITMAP
E380
4100
4100
4100
4900
3E00
0800
0800
1C00
ENDCHAR
STARTCHAR uni10C5
ENCODING 4293
SWIDTH 600 0
DWIDTH 10 0
BBX 9 11 1 0
BITMAP
1E00
0900
0E00
0800
0B00
0D00
1900
6900
8900
8900
7180
ENDCHAR
STARTCHAR uni10C6
ENCODING 4294
SWIDTH 600 0
DWIDTH 10 0
BBX 9 12 1 -3
BITMAP
1C00
0800
0800
6B00
9C80
8880
8880
9C80
6B00
0800
0800
1C00
ENDCHAR
STARTCHAR uni10D0
ENCODING 4304
SWIDTH 420 0
DWIDTH 7 0
BBX 6 11 1 0
BITMAP
20
20
20
20
10
08
44
84
84
84
78
ENDCHAR
STARTCHAR uni10D1
ENCODING 4305
SWIDTH 480 0
DWIDTH 8 0
BBX 7 12 1 0
BITMAP
40
E0
10
10
10
38
44
82
82
82
44
38
ENDCHAR
STARTCHAR uni10D2
ENCODING 4306
SWIDTH 540 0
DWIDTH 9 0
BBX 8 12 1 0
BITMAP
70
88
C8
08
1C
22
41
41
41
41
22
1C
ENDCHAR
STARTCHAR uni10D3
ENCODING 4307
SWIDTH 660 0
DWIDTH 11 0
BBX 10 12 1 0
BITMAP
7780
8840
8840
8840
8840
8780
4000
3000
CC00
8300
0080
0040
ENDCHAR
STARTCHAR uni10D4
ENCODING 4308
SWIDTH 420 0
DWIDTH 7 0
BBX 6 12 1 0
BITMAP
78
84
C4
04
04
04
44
84
84
84
84
78
ENDCHAR
STARTCHAR uni10D5
ENCODING 4309
SWIDTH 420 0
DWIDTH 7 0
BBX 6 12 1 0
BITMAP
78
84
C4
04
18
04
44
84
84
84
84
78
ENDCHAR
STARTCHAR uni10D6
ENCODING 4310
SWIDTH 720 0
DWIDTH 12 0
BBX 11 13 1 0
BITMAP
7000
8800
8800
8800
78C0
0B00
0F80
0C40
0820
0820
0820
0440
0380
ENDCHAR
STARTCHAR uni10D7
ENCODING 4311
SWIDTH 840 0
DWIDTH 14 0
BBX 13 12 1 0
BITMAP
38E0
4510
8208
8208
8208
8208
8208
8208
8208
8208
4410
3820
ENDCHAR
STARTCHAR uni10D8
ENCODING 4312
SWIDTH 480 0
DWIDTH 8 0
BBX 7 12 1 0
BITMAP
38
44
82
82
82
82
82
82
82
82
44
28
ENDCHAR
STARTCHAR uni10D9
ENCODING 4313
SWIDTH 420 0
DWIDTH 7 0
BBX 6 12 1 0
BITMAP
10
08
04
04
04
18
44
84
84
84
84
78
ENDCHAR
STARTCHAR uni10DA
ENCODING 4314
SWIDTH 840 0
DWIDTH 14 0
BBX 13 12 1 0
BITMAP
7770
8888
8888
8888
8008
8010
4000
3800
C700
80C0
0020
0010
ENDCHAR
STARTCHAR uni10DB
ENCODING 4315
SWIDTH 420 0
DWIDTH 7 0
BBX 6 12 1 0
BITMAP
78
84
84
04
04
74
8C
84
84
84
84
78
ENDCHAR
STARTCHAR uni10DC
ENCODING 4316
SWIDTH 420 0
DWIDTH 7 0
BBX 6 12 1 0
BITMAP
64
9C
80
80
80
B8
C4
84
84
84
84
78
ENDCHAR
STARTCHAR uni10DD
ENCODING 4317
SWIDTH 600 0
DWIDTH 10 0
BBX 9 12 1 0
BITMAP
7700
8880
8880
8880
8880
8080
8080
8080
8080
8080
C180
4100
ENDCHAR
STARTCHAR uni10DE
ENCODING 4318
SWIDTH 420 0
DWIDTH 7 0
BBX 6 12 1 0
BITMAP
20
18
04
04
18
04
44
84
84
84
84
78
ENDCHAR
STARTCHAR uni10DF
ENCODING 4319
SWIDTH 420 0
DWIDTH 7 0
BBX 6 12 1 0
BITMAP
04
1C
D4
94
94
64
04
44
84
84
84
78
ENDCHAR
STARTCHAR uni10E0
ENCODING 4320
SWIDTH 600 0
DWIDTH 10 0
BBX 9 12 1 0
BITMAP
0200
0200
0C00
3000
4000
7700
8880
8880
8880
8080
8080
C180
ENDCHAR
STARTCHAR uni10E1
ENCODING 4321
SWIDTH 420 0
DWIDTH 7 0
BBX 6 12 1 0
BITMAP
80
80
80
80
88
90
98
84
84
84
84
78
ENDCHAR
STARTCHAR uni10E2
ENCODING 4322
SWIDTH 600 0
DWIDTH 10 0
BBX 9 12 1 0
BITMAP
0800
1400
1400
0800
5600
9100
9280
8E80
8080
8080
4100
3E00
ENDCHAR
STARTCHAR uni10E3
ENCODING 4323
SWIDTH 660 0
DWIDTH 11 0
BBX 10 12 1 0
BITMAP
4D80
9240
6240
0240
0040
0040
0840
1040
1040
1040
0880
0700
ENDCHAR
STARTCHAR uni10E4
ENCODING 4324
SWIDTH 600 0
DWIDTH 10 0
BBX 9 12 1 0
BITMAP
7700
8880
8880
8880
7080
0300
0080
3080
2080
2080
1100
0E00
ENDCHAR
STARTCHAR uni10E5
ENCODING 4325
SWIDTH 420 0
DWIDTH 7 0
BBX 6 12 1 0
BITMAP
04
04
34
4C
44
04
04
44
84
84
84
78
ENDCHAR
STARTCHAR uni10E6
ENCODING 4326
SWIDTH 600 0
DWIDTH 10 0
BBX 9 12 1 0
BITMAP
7700
8880
8880
8880
8080
8100
4000
3000
CC00
8200
0100
0080
ENDCHAR
STARTCHAR uni10E7
ENCODING 4327
SWIDTH 420 0
DWIDTH 7 0
BBX 6 12 1 0
BITMAP
64
84
84
84
7C
04
04
44
84
84
84
78
ENDCHAR
STARTCHAR uni10E8
ENCODING 4328
SWIDTH 480 0
DWIDTH 8 0
BBX 7 12 1 0
BITMAP
6C
92
92
02
02
3A
46
42
42
42
42
3C
ENDCHAR
STARTCHAR uni10E9
ENCODING 4329
SWIDTH 420 0
DWIDTH 7 0
BBX 6 12 1 0
BITMAP
70
88
88
90
E0
80
F8
84
84
84
84
88
ENDCHAR
STARTCHAR uni10EA
ENCODING 4330
SWIDTH 480 0
DWIDTH 8 0
BBX 7 12 1 0
BITMAP
28
44
42
82
82
9C
82
82
82
82
44
38
ENDCHAR
STARTCHAR uni10EB
ENCODING 4331
SWIDTH 420 0
DWIDTH 7 0
BBX 6 12 1 0
BITMAP
18
04
04
04
04
74
8C
84
84
84
84
78
ENDCHAR
STARTCHAR uni10EC
ENCODING 4332
SWIDTH 480 0
DWIDTH 8 0
BBX 7 12 1 0
BITMAP
6C
92
92
82
40
7C
44
44
28
28
10
10
ENDCHAR
STARTCHAR uni10ED
ENCODING 4333
SWIDTH 540 0
DWIDTH 9 0
BBX 8 12 1 0
BITMAP
04
04
05
35
4E
35
05
84
84
84
84
78
ENDCHAR
STARTCHAR uni10EE
ENCODING 4334
SWIDTH 540 0
DWIDTH 9 0
BBX 8 11 0 0
BITMAP
60
A0
20
2C
30
3E
21
21
21
21
1E
ENDCHAR
STARTCHAR uni10EF
ENCODING 4335
SWIDTH 780 0
DWIDTH 13 0
BBX 12 12 1 0
BITMAP
6060
9050
8810
4420
05C0
0600
0A00
3220
4110
2110
90E0
6000
ENDCHAR
STARTCHAR uni10F0
ENCODING 4336
SWIDTH 420 0
DWIDTH 7 0
BBX 6 12 1 0
BITMAP
20
18
04
04
18
04
04
18
84
84
84
78
ENDCHAR
STARTCHAR uni10F1
ENCODING 4337
SWIDTH 480 0
DWIDTH 8 0
BBX 7 12 1 0
BITMAP
50
4C
42
82
8C
82
82
8C
82
82
42
3C
ENDCHAR
STARTCHAR uni10F2
ENCODING 4338
SWIDTH 420 0
DWIDTH 7 0
BBX 6 12 1 0
BITMAP
30
48
84
84
84
84
84
84
84
84
48
FC
ENDCHAR
STARTCHAR uni10F3
ENCODING 4339
SWIDTH 420 0
DWIDTH 7 0
BBX 6 12 1 0
BITMAP
7C
04
08
10
38
04
44
84
84
84
84
78
ENDCHAR
STARTCHAR uni10F4
ENCODING 4340
SWIDTH 420 0
DWIDTH 7 0
BBX 6 13 1 0
BITMAP
10
20
18
04
04
18
04
44
84
84
84
84
78
ENDCHAR
STARTCHAR uni10F5
ENCODING 4341
SWIDTH 480 0
DWIDTH 8 0
BBX 7 13 1 0
BITMAP
78
84
84
84
84
7E
04
7E
84
84
84
84
78
ENDCHAR
STARTCHAR uni1100
ENCODING 4352
SWIDTH 1020 0
DWIDTH 17 0
BBX 11 10 3 0
BITMAP
8000
FFE0
0020
0020
0020
0020
0020
0020
0020
0020
ENDCHAR
STARTCHAR uni1101
ENCODING 4353
SWIDTH 1020 0
DWIDTH 17 0
BBX 12 9 2 1
BITMAP
8100
FDF0
0410
0410
0410
0410
0410
0410
0410
ENDCHAR
STARTCHAR uni1102
ENCODING 4354
SWIDTH 1020 0
DWIDTH 17 0
BBX 12 7 2 2
BITMAP
C000
4000
4000
4000
4000
4060
3FF0
ENDCHAR
STARTCHAR uni1103
ENCODING 4355
SWIDTH 1020 0
DWIDTH 17 0
BBX 12 8 2 2
BITMAP
0040
FFE0
4000
4000
4000
4000
4060
7FF0
ENDCHAR
STARTCHAR uni1104
ENCODING 4356
SWIDTH 1020 0
DWIDTH 17 0
BBX 13 9 2 1
BITMAP
0820
FDF0
4100
4100
4100
4100
4300
4D10
71F8
ENDCHAR
STARTCHAR uni1105
ENCODING 4357
SWIDTH 1020 0
DWIDTH 17 0
BBX 12 9 2 1
BITMAP
0040
FFC0
4040
0040
7FC0
4000
4000
4060
7FF0
ENDCHAR
STARTCHAR uni1106
ENCODING 4358
SWIDTH 1020 0
DWIDTH 17 0
BBX 11 8 3 1
BITMAP
FFE0
4020
4040
4040
4040
4040
7FC0
4000
ENDCHAR
STARTCHAR uni1107
ENCODING 4359
SWIDTH 1020 0
DWIDTH 17 0
BBX 10 11 3 0
BITMAP
00C0
C040
4040
4040
7FC0
4040
4040
4040
4040
7FC0
4040
ENDCHAR
STARTCHAR uni1108
ENCODING 4360
SWIDTH 1020 0
DWIDTH 17 0
BBX 13 11 2 0
BITMAP
0018
0988
C488
4488
44F8
7C88
4488
4488
4488
7CF8
4488
ENDCHAR
STARTCHAR uni1109
ENCODING 4361
SWIDTH 1020 0
DWIDTH 17 0
BBX 12 9 2 1
BITMAP
0800
0600
0400
0C00
0B00
1080
2060
4020
8010
ENDCHAR
STARTCHAR uni110A
ENCODING 4362
SWIDTH 1020 0
DWIDTH 17 0
BBX 14 9 2 1
BITMAP
1860
0C30
0820
0820
1450
1248
2184
4104
8200
ENDCHAR
STARTCHAR uni110B
ENCODING 4363
SWIDTH 1020 0
DWIDTH 17 0
BBX 9 9 4 1
BITMAP
0800
3E00
4100
8080
8080
8080
8080
4100
3E00
ENDCHAR
STARTCHAR uni110C
ENCODING 4364
SWIDTH 1020 0
DWIDTH 17 0
BBX 10 9 3 1
BITMAP
0080
FFC0
0400
0400
0C00
0A00
1180
60C0
8040
ENDCHAR
STARTCHAR uni110D
ENCODING 4365
SWIDTH 1020 0
DWIDTH 17 0
BBX 14 10 2 0
BITMAP
0204
7F7C
0820
0820
0820
1450
1248
2184
4104
8200
ENDCHAR
STARTCHAR uni110E
ENCODING 4366
SWIDTH 1020 0
DWIDTH 17 0
BBX 11 9 2 1
BITMAP
1F00
0000
FFE0
4400
0400
0A00
1180
2040
C020
ENDCHAR
STARTCHAR uni110F
ENCODING 4367
SWIDTH 1020 0
DWIDTH 17 0
BBX 10 10 3 1
BITMAP
00C0
FF40
6040
0040
01C0
1E40
E040
0080
0080
0080
ENDCHAR
STARTCHAR uni1110
ENCODING 4368
SWIDTH 1020 0
DWIDTH 17 0
BBX 12 9 2 1
BITMAP
00C0
FFE0
4000
4180
7FC0
4000
4000
4060
7FF0
ENDCHAR
STARTCHAR uni1111
ENCODING 4369
SWIDTH 1020 0
DWIDTH 17 0
BBX 13 9 2 1
BITMAP
4060
7FF0
0000
00C0
1040
0880
0880
8130
FFF8
ENDCHAR
STARTCHAR uni1112
ENCODING 4370
SWIDTH 1020 0
DWIDTH 17 0
BBX 13 10 2 0
BITMAP
0F80
0010
FFF8
0200
0F80
1040
1040
1040
1040
0F80
ENDCHAR
STARTCHAR uni1113
ENCODING 4371
SWIDTH 1020 0
DWIDTH 17 0
BBX 10 9 3 1
BITMAP
0400
C7C0
4040
4040
4040
4040
4440
5840
2040
ENDCHAR
STARTCHAR uni1114
ENCODING 4372
SWIDTH 1020 0
DWIDTH 17 0
BBX 13 9 2 1
BITMAP
0300
C100
4100
4100
4100
4100
4500
59F8
2000
ENDCHAR
STARTCHAR uni1115
ENCODING 4373
SWIDTH 1020 0
DWIDTH 17 0
BBX 13 9 2 1
BITMAP
0010
C1F0
4100
4100
4100
4100
4500
5910
61F8
ENDCHAR
STARTCHAR uni1116
ENCODING 4374
SWIDTH 1020 0
DWIDTH 17 0
BBX 12 10 2 1
BITMAP
0030
0310
C110
4110
41F0
4110
4110
4510
59F0
6110
ENDCHAR
STARTCHAR uni1117
ENCODING 4375
SWIDTH 1020 0
DWIDTH 17 0
BBX 12 9 2 1
BITMAP
0900
F9F0
8010
8010
8010
8010
8010
8810
FC10
ENDCHAR
STARTCHAR uni1118
ENCODING 4376
SWIDTH 1020 0
DWIDTH 17 0
BBX 14 8 2 1
BITMAP
FCC0
0840
0840
FC40
4040
4044
4258
7C20
ENDCHAR
STARTCHAR uni1119
ENCODING 4377
SWIDTH 1020 0
DWIDTH 17 0
BBX 14 8 2 1
BITMAP
FDF8
0810
0810
FDF8
4080
4080
4284
7CF8
ENDCHAR
STARTCHAR uni111A
ENCODING 4378
SWIDTH 1020 0
DWIDTH 17 0
BBX 15 9 2 1
BITMAP
0004
FDFE
4800
0820
F870
4088
4088
4288
7C70
ENDCHAR
STARTCHAR uni111B
ENCODING 4379
SWIDTH 1020 0
DWIDTH 17 0
BBX 9 14 4 -1
BITMAP
FF80
0100
0100
FF80
4000
4000
7F80
0800
3E00
4100
4100
4100
4100
3E00
ENDCHAR
STARTCHAR uni111C
ENCODING 4380
SWIDTH 1020 0
DWIDTH 17 0
BBX 13 10 2 0
BITMAP
0018
FD88
4488
4488
44F8
4488
4488
7E88
40F8
0088
ENDCHAR
STARTCHAR uni111D
ENCODING 4381
SWIDTH 1020 0
DWIDTH 17 0
BBX 9 13 3 -1
BITMAP
FF00
4100
4100
4100
7F80
4000
0800
3E00
4100
4100
4100
4100
3E00
ENDCHAR
STARTCHAR uni111E
ENCODING 4382
SWIDTH 1020 0
DWIDTH 17 0
BBX 12 10 2 0
BITMAP
0D00
C5F0
4410
4410
7C10
4410
4410
4410
7C10
4400
ENDCHAR
STARTCHAR uni111F
ENCODING 4383
SWIDTH 1020 0
DWIDTH 17 0
BBX 14 10 2 0
BITMAP
0D00
C480
4480
4480
7C80
4480
4480
4488
7CFC
4400
ENDCHAR
STARTCHAR uni1120
ENCODING 4384
SWIDTH 1020 0
DWIDTH 17 0
BBX 13 10 2 0
BITMAP
0C10
C5F0
4500
4500
7D00
4500
4500
4510
7DF8
4400
ENDCHAR
STARTCHAR uni1121
ENCODING 4385
SWIDTH 1020 0
DWIDTH 17 0
BBX 14 10 2 0
BITMAP
0C40
C430
4420
4420
7C20
4450
4448
4484
7D04
4200
ENDCHAR
STARTCHAR uni1122
ENCODING 4386
SWIDTH 1020 0
DWIDTH 17 0
BBX 14 10 1 0
BITMAP
1920
C8BC
4884
4884
7984
4944
4A24
4C24
7C04
4000
ENDCHAR
STARTCHAR uni1123
ENCODING 4387
SWIDTH 1020 0
DWIDTH 17 0
BBX 14 10 1 0
BITMAP
1A04
C93C
4920
4920
7920
4B20
4AA0
4CA4
7CBC
4000
ENDCHAR
STARTCHAR uni1124
ENCODING 4388
SWIDTH 1020 0
DWIDTH 17 0
BBX 14 10 1 0
BITMAP
1A0C
C964
4924
4924
793C
4B24
4AA4
4CA4
7CBC
4024
ENDCHAR
STARTCHAR uni1125
ENCODING 4389
SWIDTH 1020 0
DWIDTH 17 0
BBX 14 10 1 0
BITMAP
1910
C888
4888
4888
7888
4998
4954
4A64
7C44
4000
ENDCHAR
STARTCHAR uni1126
ENCODING 4390
SWIDTH 1020 0
DWIDTH 17 0
BBX 15 11 1 0
BITMAP
0004
197E
C888
4888
4888
7888
4994
4954
4A64
7C44
4000
ENDCHAR
STARTCHAR uni1127
ENCODING 4391
SWIDTH 1020 0
DWIDTH 17 0
BBX 14 10 2 0
BITMAP
0C04
C5FC
4420
4420
7C20
4450
4448
4484
7D04
4200
ENDCHAR
STARTCHAR uni1128
ENCODING 4392
SWIDTH 1020 0
DWIDTH 17 0
BBX 14 11 2 0
BITMAP
00F0
0C04
C5FC
4420
4420
7C20
4450
4448
4484
7D04
4200
ENDCHAR
STARTCHAR uni1129
ENCODING 4393
SWIDTH 1020 0
DWIDTH 17 0
BBX 14 10 2 0
BITMAP
0C08
C5FC
4480
4490
7CF8
4480
4480
4488
7CFC
4400
ENDCHAR
STARTCHAR uni112A
ENCODING 4394
SWIDTH 1020 0
DWIDTH 17 0
BBX 15 10 2 0
BITMAP
0C04
C5FC
4400
4518
7C88
4488
4490
4412
7DFE
4400
ENDCHAR
STARTCHAR uni112B
ENCODING 4395
SWIDTH 1020 0
DWIDTH 17 0
BBX 9 15 4 -2
BITMAP
0180
C080
4080
7F80
4080
4080
7F80
4080
0800
3E00
4100
4100
4100
4100
3E00
ENDCHAR
STARTCHAR uni112C
ENCODING 4396
SWIDTH 1020 0
DWIDTH 17 0
BBX 12 15 2 -2
BITMAP
0C30
C710
4510
7DF0
4510
4510
7DF0
4510
0200
0F80
1040
1040
1040
1040
0F80
ENDCHAR
STARTCHAR uni112D
ENCODING 4397
SWIDTH 1020 0
DWIDTH 17 0
BBX 13 9 2 1
BITMAP
1900
0DF8
0808
0808
1408
1408
2208
4208
8008
ENDCHAR
STARTCHAR uni112E
ENCODING 4398
SWIDTH 1020 0
DWIDTH 17 0
BBX 13 9 2 1
BITMAP
1800
0D80
0880
0880
1880
1480
2488
42B0
8240
ENDCHAR
STARTCHAR uni112F
ENCODING 4399
SWIDTH 1020 0
DWIDTH 17 0
BBX 14 9 2 1
BITMAP
1808
0CF8
0880
0880
1480
1480
2280
4288
80FC
ENDCHAR
STARTCHAR uni1130
ENCODING 4400
SWIDTH 1020 0
DWIDTH 17 0
BBX 14 9 2 1
BITMAP
1800
0DF8
0810
0810
15F8
1480
2280
4284
81F8
ENDCHAR
STARTCHAR uni1131
ENCODING 4401
SWIDTH 1020 0
DWIDTH 17 0
BBX 14 9 2 1
BITMAP
1800
0DF8
0888
0888
1488
1488
2288
42FC
8080
ENDCHAR
STARTCHAR uni1132
ENCODING 4402
SWIDTH 1020 0
DWIDTH 17 0
BBX 13 10 2 0
BITMAP
1818
0D88
0888
0888
14F8
1488
2288
4288
80F8
0088
ENDCHAR
STARTCHAR uni1133
ENCODING 4403
SWIDTH 1020 0
DWIDTH 17 0
BBX 14 10 1 1
BITMAP
00C0
2650
125C
1244
13C4
3244
2A44
4A44
8BC4
8244
ENDCHAR
STARTCHAR uni1134
ENCODING 4404
SWIDTH 1020 0
DWIDTH 17 0
BBX 15 9 1 1
BITMAP
2108
1084
1084
1084
294A
294A
4A52
8C62
8420
ENDCHAR
STARTCHAR uni1135
ENCODING 4405
SWIDTH 1020 0
DWIDTH 17 0
BBX 13 9 2 1
BITMAP
1820
0C20
0870
0888
1488
1488
2288
4288
8070
ENDCHAR
STARTCHAR uni1136
ENCODING 4406
SWIDTH 1020 0
DWIDTH 17 0
BBX 14 10 2 0
BITMAP
1804
0DFC
0820
0820
1420
1450
2248
4284
8104
0200
ENDCHAR
STARTCHAR uni1137
ENCODING 4407
SWIDTH 1020 0
DWIDTH 17 0
BBX 14 11 2 0
BITMAP
00F0
1804
0DFC
0820
0820
1420
1450
2248
4284
8104
0200
ENDCHAR
STARTCHAR uni1138
ENCODING 4408
SWIDTH 1020 0
DWIDTH 17 0
BBX 14 10 2 0
BITMAP
1804
0CFC
0884
0804
141C
14E8
2208
4210
8020
0040
ENDCHAR
STARTCHAR uni1139
ENCODING 4409
SWIDTH 1020 0
DWIDTH 17 0
BBX 14 9 2 1
BITMAP
1808
0DFC
0880
0890
14F8
1480
2280
4288
80FC
ENDCHAR
STARTCHAR uni113A
ENCODING 4410
SWIDTH 1020 0
DWIDTH 17 0
BBX 16 9 1 1
BITMAP
1802
0CFE
0800
088C
1444
1444
2248
4209
80FF
ENDCHAR
STARTCHAR uni113B
ENCODING 4411
SWIDTH 1020 0
DWIDTH 17 0
BBX 15 9 2 1
BITMAP
1804
0DFE
0800
0820
1470
1288
2188
4188
8070
ENDCHAR
STARTCHAR uni113C
ENCODING 4412
SWIDTH 1020 0
DWIDTH 17 0
BBX 9 10 4 -1
BITMAP
0400
0400
0A00
1100
1100
2080
2000
4000
8000
8000
ENDCHAR
STARTCHAR uni113D
ENCODING 4413
SWIDTH 1020 0
DWIDTH 17 0
BBX 15 10 1 -1
BITMAP
0410
0410
0A28
1144
1144
2082
2080
4100
8200
8200
ENDCHAR
STARTCHAR uni113E
ENCODING 4414
SWIDTH 1020 0
DWIDTH 17 0
BBX 9 10 4 -1
BITMAP
1000
1000
2800
4400
4400
8200
0200
0100
0080
0080
ENDCHAR
STARTCHAR uni113F
ENCODING 4415
SWIDTH 1020 0
DWIDTH 17 0
BBX 15 10 1 -1
BITMAP
1040
1040
28A0
4510
4510
8208
0208
0104
0082
0082
ENDCHAR
STARTCHAR uni1140
ENCODING 4416
SWIDTH 1020 0
DWIDTH 17 0
BBX 9 9 4 1
BITMAP
0800
0800
1400
2200
2200
4100
8080
8080
FF80
ENDCHAR
STARTCHAR uni1141
ENCODING 4417
SWIDTH 1020 0
DWIDTH 17 0
BBX 12 9 2 1
BITMAP
1200
13F0
7810
8410
8410
8410
8410
8410
7810
ENDCHAR
STARTCHAR uni1142
ENCODING 4418
SWIDTH 1020 0
DWIDTH 17 0
BBX 13 9 2 1
BITMAP
1010
11F0
7900
8500
8500
8500
8500
8510
79F8
ENDCHAR
STARTCHAR uni1143
ENCODING 4419
SWIDTH 1020 0
DWIDTH 17 0
BBX 13 9 2 1
BITMAP
1000
13F0
7910
8510
8510
8510
8510
85F8
7900
ENDCHAR
STARTCHAR uni1144
ENCODING 4420
SWIDTH 1020 0
DWIDTH 17 0
BBX 12 10 2 0
BITMAP
1030
1310
7910
8510
85F0
8510
8510
8510
79F0
0110
ENDCHAR
STARTCHAR uni1145
ENCODING 4421
SWIDTH 1020 0
DWIDTH 17 0
BBX 13 9 2 1
BITMAP
10C0
1060
7840
8440
84A0
8490
8508
8608
7C00
ENDCHAR
STARTCHAR uni1146
ENCODING 4422
SWIDTH 1020 0
DWIDTH 17 0
BBX 14 9 2 1
BITMAP
1020
1020
7850
8450
8488
8488
8504
8504
79FC
ENDCHAR
STARTCHAR uni1147
ENCODING 4423
SWIDTH 1020 0
DWIDTH 17 0
BBX 13 9 2 1
BITMAP
1020
1020
78F0
8508
8508
8508
8508
8508
78F0
ENDCHAR
STARTCHAR uni1148
ENCODING 4424
SWIDTH 1020 0
DWIDTH 17 0
BBX 13 10 2 0
BITMAP
1008
13F8
7840
8440
8440
84A0
8490
8508
7A08
0400
ENDCHAR
STARTCHAR uni1149
ENCODING 4425
SWIDTH 1020 0
DWIDTH 17 0
BBX 13 11 2 0
BITMAP
01E0
1008
13F8
7840
8440
8440
84A0
8490
8508
7A08
0400
ENDCHAR
STARTCHAR uni114A
ENCODING 4426
SWIDTH 1020 0
DWIDTH 17 0
BBX 13 9 2 1
BITMAP
1010
13F8
7900
8520
85F0
8500
8500
8510
79F8
ENDCHAR
STARTCHAR uni114B
ENCODING 4427
SWIDTH 1020 0
DWIDTH 17 0
BBX 15 9 1 1
BITMAP
1004
11FC
7800
8518
8488
8488
8490
8412
79FE
ENDCHAR
STARTCHAR uni114C
ENCODING 4428
SWIDTH 1020 0
DWIDTH 17 0
BBX 7 8 5 2
BITMAP
10
10
7C
82
82
82
82
7C
ENDCHAR
STARTCHAR uni114D
ENCODING 4429
SWIDTH 1020 0
DWIDTH 17 0
BBX 15 10 2 0
BITMAP
0108
7F08
083C
0842
0842
1442
1242
2142
413C
8000
ENDCHAR
STARTCHAR uni114E
ENCODING 4430
SWIDTH 1020 0
DWIDTH 17 0
BBX 11 11 4 1
BITMAP
00C0
FFE0
0400
0A00
1100
1100
2080
2000
4000
8000
8000
ENDCHAR
STARTCHAR uni114F
ENCODING 4431
SWIDTH 1020 0
DWIDTH 17 0
BBX 15 11 1 1
BITMAP
000C
7FFE
0410
0A28
1144
1144
2082
2080
4100
8200
8200
ENDCHAR
STARTCHAR uni1150
ENCODING 4432
SWIDTH 1020 0
DWIDTH 17 0
BBX 11 11 4 -1
BITMAP
00C0
FFE0
0400
0A00
1100
1100
2080
0080
0040
0020
0020
ENDCHAR
STARTCHAR uni1151
ENCODING 4433
SWIDTH 1020 0
DWIDTH 17 0
BBX 15 11 1 -1
BITMAP
0018
FFFC
1040
28A0
4510
4510
8208
0208
0104
0082
0082
ENDCHAR
STARTCHAR uni1152
ENCODING 4434
SWIDTH 1020 0
DWIDTH 17 0
BBX 15 10 1 0
BITMAP
0102
7F7E
0842
0802
080E
1474
1204
2108
4110
8020
ENDCHAR
STARTCHAR uni1153
ENCODING 4435
SWIDTH 1020 0
DWIDTH 17 0
BBX 16 11 1 0
BITMAP
3C00
0138
7F02
087F
0808
083C
1442
1242
2142
413C
8000
ENDCHAR
STARTCHAR uni1154
ENCODING 4436
SWIDTH 1020 0
DWIDTH 17 0
BBX 14 13 2 -1
BITMAP
0200
0100
0118
FFFC
0100
0280
0440
0440
0820
0800
1000
2000
2000
ENDCHAR
STARTCHAR uni1155
ENCODING 4437
SWIDTH 1020 0
DWIDTH 17 0
BBX 14 13 2 -1
BITMAP
0200
0100
0118
FFFC
0100
0280
0440
0440
0820
0020
0010
0008
0008
ENDCHAR
STARTCHAR uni1156
ENCODING 4438
SWIDTH 1020 0
DWIDTH 17 0
BBX 15 10 1 0
BITMAP
0206
FE62
0022
8C22
443E
4422
4822
0922
FF3E
0022
ENDCHAR
STARTCHAR uni1157
ENCODING 4439
SWIDTH 1020 0
DWIDTH 17 0
BBX 11 15 3 -2
BITMAP
0080
7FC0
0000
2300
1100
1100
0240
FFE0
0400
1F00
2080
2080
2080
2080
1F00
ENDCHAR
STARTCHAR uni1158
ENCODING 4440
SWIDTH 1020 0
DWIDTH 17 0
BBX 14 9 2 1
BITMAP
70E0
0408
FDFC
1020
78F0
8508
8508
8508
78F0
ENDCHAR
STARTCHAR uni1159
ENCODING 4441
SWIDTH 1020 0
DWIDTH 17 0
BBX 11 11 3 0
BITMAP
00C0
FFE0
0000
0000
0400
1F00
2080
2080
2080
2080
1F00
ENDCHAR
STARTCHAR uni115F
ENCODING 4447
SWIDTH 900 0
DWIDTH 15 0
BBX 15 15 0 0
BITMAP
B6D6
8000
1272
9280
1E82
9282
9270
0002
83C2
8200
03C2
8202
8200
0002
DB6A
ENDCHAR
STARTCHAR uni1160
ENCODING 4448
SWIDTH 900 0
DWIDTH 15 0
BBX 15 15 0 0
BITMAP
B6D6
8000
1212
9210
1E12
9292
9260
0002
83C2
8200
03C2
8202
8200
0002
DB6A
ENDCHAR
STARTCHAR uni1161
ENCODING 4449
SWIDTH 1020 0
DWIDTH 17 0
BBX 7 15 5 -2
BITMAP
E0
20
20
20
20
22
3E
20
20
20
20
20
20
20
20
ENDCHAR
STARTCHAR uni1162
ENCODING 4450
SWIDTH 1020 0
DWIDTH 17 0
BBX 5 15 6 -2
BITMAP
38
08
C8
48
48
48
48
48
78
48
48
48
48
48
08
ENDCHAR
STARTCHAR uni1163
ENCODING 4451
SWIDTH 1020 0
DWIDTH 17 0
BBX 7 15 5 -2
BITMAP
E0
20
20
20
22
3E
20
20
20
22
3E
20
20
20
20
ENDCHAR
STARTCHAR uni1164
ENCODING 4452
SWIDTH 600 0
DWIDTH 10 0
BBX 5 15 5 -2
BITMAP
38
08
C8
48
48
78
48
48
48
78
48
48
48
48
08
ENDCHAR
STARTCHAR uni1165
ENCODING 4453
SWIDTH 1020 0
DWIDTH 17 0
BBX 5 15 6 -2
BITMAP
38
08
08
08
08
08
88
F8
08
08
08
08
08
08
08
ENDCHAR
STARTCHAR uni1166
ENCODING 4454
SWIDTH 1020 0
DWIDTH 17 0
BBX 8 15 4 -2
BITMAP
07
01
19
09
09
09
89
F9
09
09
09
09
09
09
01
ENDCHAR
STARTCHAR uni1167
ENCODING 4455
SWIDTH 1020 0
DWIDTH 17 0
BBX 5 15 6 -2
BITMAP
38
08
08
08
88
F8
08
08
08
88
F8
08
08
08
08
ENDCHAR
STARTCHAR uni1168
ENCODING 4456
SWIDTH 1020 0
DWIDTH 17 0
BBX 8 15 4 -2
BITMAP
07
01
19
09
89
F9
09
09
89
F9
09
09
09
09
01
ENDCHAR
STARTCHAR uni1169
ENCODING 4457
SWIDTH 1020 0
DWIDTH 17 0
BBX 15 8 1 2
BITMAP
0300
0100
0100
0100
0100
0100
010C
FFFE
ENDCHAR
STARTCHAR uni116A
ENCODING 4458
SWIDTH 1020 0
DWIDTH 17 0
BBX 15 15 1 -2
BITMAP
00E0
0020
0020
0C20
0420
0420
0422
043E
0420
05E0
FE20
0020
0020
0020
0020
ENDCHAR
STARTCHAR uni116B
ENCODING 4459
SWIDTH 1020 0
DWIDTH 17 0
BBX 12 15 2 -2
BITMAP
0070
0010
0190
0090
0090
3090
1090
10F0
1190
1E90
E090
0090
0090
0090
0010
ENDCHAR
STARTCHAR uni116C
ENCODING 4460
SWIDTH 1020 0
DWIDTH 17 0
BBX 12 15 1 -2
BITMAP
0070
0010
0010
0C10
0410
0410
0410
0410
0410
04F0
FF10
0010
0010
0010
0010
ENDCHAR
STARTCHAR uni116D
ENCODING 4461
SWIDTH 1020 0
DWIDTH 17 0
BBX 15 7 2 2
BITMAP
1860
0820
0820
0840
0840
0844
FFFE
ENDCHAR
STARTCHAR uni116E
ENCODING 4462
SWIDTH 1020 0
DWIDTH 17 0
BBX 15 12 1 -2
BITMAP
000C
FFFE
4100
0100
0100
0100
0100
0100
0100
0100
0100
0100
ENDCHAR
STARTCHAR uni116F
ENCODING 4463
SWIDTH 1020 0
DWIDTH 17 0
BBX 13 15 1 -2
BITMAP
0038
0008
0008
0008
0008
00E8
FF08
0408
0478
0448
0408
0408
0408
0408
0008
ENDCHAR
STARTCHAR uni1170
ENCODING 4464
SWIDTH 900 0
DWIDTH 15 0
BBX 13 15 2 -2
BITMAP
0038
0008
00C8
0048
0048
0348
FC48
0848
0A48
0BC8
0848
0848
0848
0848
0008
ENDCHAR
STARTCHAR uni1171
ENCODING 4465
SWIDTH 1020 0
DWIDTH 17 0
BBX 12 15 2 -2
BITMAP
0070
0010
0010
0010
0010
01D0
FE10
0810
0810
0810
0810
0810
0810
0810
0010
ENDCHAR
STARTCHAR uni1172
ENCODING 4466
SWIDTH 1020 0
DWIDTH 17 0
BBX 15 12 1 -2
BITMAP
0006
FFFE
6820
0820
0820
0820
0820
0820
0820
0820
0820
0820
ENDCHAR
STARTCHAR uni1173
ENCODING 4467
SWIDTH 1020 0
DWIDTH 17 0
BBX 14 2 2 4
BITMAP
0018
FFFC
ENDCHAR
STARTCHAR uni1174
ENCODING 4468
SWIDTH 1020 0
DWIDTH 17 0
BBX 12 15 1 -2
BITMAP
0070
0010
0010
0010
0010
0010
0010
0010
01F0
FE10
0010
0010
0010
0010
0010
ENDCHAR
STARTCHAR uni1175
ENCODING 4469
SWIDTH 1020 0
DWIDTH 17 0
BBX 3 15 6 -2
BITMAP
E0
20
20
20
20
20
20
20
20
20
20
20
20
20
20
ENDCHAR
STARTCHAR uni1176
ENCODING 4470
SWIDTH 1020 0
DWIDTH 17 0
BBX 13 14 2 -1
BITMAP
00C0
0040
0040
0040
0048
0078
0040
0040
0C40
0440
0440
0400
0420
FFF0
ENDCHAR
STARTCHAR uni1177
ENCODING 4471
SWIDTH 1020 0
DWIDTH 17 0
BBX 10 15 4 -2
BITMAP
0600
0200
0240
03C0
0200
0200
0200
0000
0100
FF80
0800
0800
0800
0800
0800
ENDCHAR
STARTCHAR uni1178
ENCODING 4472
SWIDTH 1020 0
DWIDTH 17 0
BBX 13 14 2 -1
BITMAP
00C0
0040
0048
0078
0040
0040
0048
0078
0C40
0440
0440
0400
0420
FFF0
ENDCHAR
STARTCHAR uni1179
ENCODING 4473
SWIDTH 1020 0
DWIDTH 17 0
BBX 14 14 2 -1
BITMAP
0060
0020
0024
003C
0020
0020
0024
003C
31A0
10A0
10A0
1100
1120
FFF0
ENDCHAR
STARTCHAR uni117A
ENCODING 4474
SWIDTH 1020 0
DWIDTH 17 0
BBX 12 14 2 -1
BITMAP
00C0
0040
0040
0040
0240
03C0
0040
0040
0C40
0440
0440
0400
0420
FFF0
ENDCHAR
STARTCHAR uni117B
ENCODING 4475
SWIDTH 1020 0
DWIDTH 17 0
BBX 9 15 4 -2
BITMAP
0600
0200
0200
1E00
0200
0200
0200
0000
0100
FF80
0800
0800
0800
0800
0800
ENDCHAR
STARTCHAR uni117C
ENCODING 4476
SWIDTH 1020 0
DWIDTH 17 0
BBX 12 14 2 -1
BITMAP
00C0
0040
0040
0040
0240
03C0
0040
0040
0040
0040
0040
0000
0020
FFF0
ENDCHAR
STARTCHAR uni117D
ENCODING 4477
SWIDTH 1020 0
DWIDTH 17 0
BBX 12 14 2 -1
BITMAP
0060
0020
0120
01E0
0020
0020
0120
01E0
0C20
0420
0420
0400
0420
FFF0
ENDCHAR
STARTCHAR uni117E
ENCODING 4478
SWIDTH 1020 0
DWIDTH 17 0
BBX 9 15 4 -2
BITMAP
0600
0200
1E00
0200
0200
1E00
0200
0200
0100
FF80
0800
0800
0800
0800
0800
ENDCHAR
STARTCHAR uni117F
ENCODING 4479
SWIDTH 1020 0
DWIDTH 17 0
BBX 12 15 3 -2
BITMAP
0070
0010
0010
0010
0010
0C10
0510
05F0
0410
0410
0410
05D0
FE10
0010
0010
ENDCHAR
STARTCHAR uni1180
ENCODING 4480
SWIDTH 1020 0
DWIDTH 17 0
BBX 15 15 1 -2
BITMAP
000E
0002
0032
0012
0012
0012
0112
0DF2
0412
0412
0412
05D2
0E12
F012
0002
ENDCHAR
STARTCHAR uni1181
ENCODING 4481
SWIDTH 1020 0
DWIDTH 17 0
BBX 15 15 1 -2
BITMAP
000E
0002
0032
0012
0112
01F2
0012
0C12
0512
05F2
0412
05D2
0E12
F012
0002
ENDCHAR
STARTCHAR uni1182
ENCODING 4482
SWIDTH 1020 0
DWIDTH 17 0
BBX 13 13 2 0
BITMAP
0600
0200
0200
0200
0230
FFF8
0000
0600
0200
0200
0200
0230
FFF8
ENDCHAR
STARTCHAR uni1183
ENCODING 4483
SWIDTH 1020 0
DWIDTH 17 0
BBX 11 14 3 -2
BITMAP
0C00
0400
0400
0400
0440
FFE0
0000
0040
FFE0
0400
0400
0400
0400
0400
ENDCHAR
STARTCHAR uni1184
ENCODING 4484
SWIDTH 1020 0
DWIDTH 17 0
BBX 15 15 1 -2
BITMAP
001C
0010
0010
0010
0012
001E
0010
3310
1110
1112
111E
1170
1790
F810
0010
ENDCHAR
STARTCHAR uni1185
ENCODING 4485
SWIDTH 1020 0
DWIDTH 17 0
BBX 15 15 1 -2
BITMAP
000E
0002
0032
0012
0012
001E
0012
3312
1112
111E
1112
1172
1792
F812
0002
ENDCHAR
STARTCHAR uni1186
ENCODING 4486
SWIDTH 1020 0
DWIDTH 17 0
BBX 15 15 1 -2
BITMAP
000E
0002
0002
0002
0022
003E
0002
3302
1122
113E
1102
1162
1782
F802
0002
ENDCHAR
STARTCHAR uni1187
ENCODING 4487
SWIDTH 1020 0
DWIDTH 17 0
BBX 13 13 2 0
BITMAP
30C0
1040
1040
1080
1090
FFF8
0000
0600
0200
0200
0200
0230
FFF8
ENDCHAR
STARTCHAR uni1188
ENCODING 4488
SWIDTH 1020 0
DWIDTH 17 0
BBX 12 15 3 -2
BITMAP
0070
0010
0010
0010
0010
0010
0010
0C10
0410
0410
0410
05D0
0E10
F010
0010
ENDCHAR
STARTCHAR uni1189
ENCODING 4489
SWIDTH 1020 0
DWIDTH 17 0
BBX 16 15 1 -2
BITMAP
0070
0010
0010
0010
0010
0010
0011
0C1F
0410
0410
0410
05D0
0E10
F010
0010
ENDCHAR
STARTCHAR uni118A
ENCODING 4490
SWIDTH 1020 0
DWIDTH 17 0
BBX 15 15 1 -2
BITMAP
00E0
0020
0020
0020
0020
0020
0022
013E
FFA0
0820
0820
0820
0820
0820
0020
ENDCHAR
STARTCHAR uni118B
ENCODING 4491
SWIDTH 1020 0
DWIDTH 17 0
BBX 14 15 1 -2
BITMAP
001C
0004
0064
0024
0024
003C
0024
0124
FFA4
083C
0824
0824
0824
0824
0004
ENDCHAR
STARTCHAR uni118C
ENCODING 4492
SWIDTH 1020 0
DWIDTH 17 0
BBX 15 16 1 -3
BITMAP
00E0
0020
0020
0020
0020
0020
0022
013E
FFA0
0820
0820
0820
0820
0820
00E0
FFC0
ENDCHAR
STARTCHAR uni118D
ENCODING 4493
SWIDTH 1020 0
DWIDTH 17 0
BBX 11 14 3 -2
BITMAP
0040
FFE0
0400
0400
0400
0400
0400
0040
FFE0
0400
0400
0400
0400
0400
ENDCHAR
STARTCHAR uni118E
ENCODING 4494
SWIDTH 1020 0
DWIDTH 17 0
BBX 13 15 2 -2
BITMAP
01C0
0040
0040
0040
0040
0048
0078
0040
0F40
F440
2440
2440
2440
2440
0040
ENDCHAR
STARTCHAR uni118F
ENCODING 4495
SWIDTH 1020 0
DWIDTH 17 0
BBX 10 15 3 -2
BITMAP
01C0
0040
0040
0040
0040
0240
03C0
0040
0F40
F440
2440
2440
2440
2440
0040
ENDCHAR
STARTCHAR uni1190
ENCODING 4496
SWIDTH 1020 0
DWIDTH 17 0
BBX 15 15 1 -2
BITMAP
000E
0002
0032
0012
0F12
F412
2512
25F2
2412
2412
0012
0012
0012
0012
0002
ENDCHAR
STARTCHAR uni1191
ENCODING 4497
SWIDTH 840 0
DWIDTH 14 0
BBX 12 15 1 -2
BITMAP
0070
0010
0010
0010
0090
00F0
0010
0F10
F410
2490
24F0
2410
2410
0010
0010
ENDCHAR
STARTCHAR uni1192
ENCODING 4498
SWIDTH 1020 0
DWIDTH 17 0
BBX 15 15 1 -2
BITMAP
000E
0002
0032
0012
0092
00F2
0012
0F12
F492
24F2
2412
2412
2412
0012
0002
ENDCHAR
STARTCHAR uni1193
ENCODING 4499
SWIDTH 1020 0
DWIDTH 17 0
BBX 11 15 3 -2
BITMAP
0040
FFE0
1100
1100
1100
1100
1100
0000
0040
FFE0
0400
0400
0400
0400
0400
ENDCHAR
STARTCHAR uni1194
ENCODING 4500
SWIDTH 1020 0
DWIDTH 17 0
BBX 10 15 3 -2
BITMAP
01C0
0040
0040
0040
0040
0040
0040
0040
0F40
F440
2440
2440
2440
2440
0040
ENDCHAR
STARTCHAR uni1195
ENCODING 4501
SWIDTH 1020 0
DWIDTH 17 0
BBX 11 10 3 1
BITMAP
0040
FFE0
0000
0040
FFE0
0400
0400
0400
0400
0400
ENDCHAR
STARTCHAR uni1196
ENCODING 4502
SWIDTH 1020 0
DWIDTH 17 0
BBX 11 5 3 4
BITMAP
0040
FFE0
0000
0040
FFE0
ENDCHAR
STARTCHAR uni1197
ENCODING 4503
SWIDTH 1020 0
DWIDTH 17 0
BBX 11 15 3 -2
BITMAP
01C0
0040
0040
0040
0040
00C0
0740
F800
0040
FFE0
0400
0400
0400
0400
0400
ENDCHAR
STARTCHAR uni1198
ENCODING 4504
SWIDTH 1020 0
DWIDTH 17 0
BBX 11 15 3 -2
BITMAP
EE00
2200
2200
2200
2200
2200
2220
23E0
2200
2200
2200
2200
2200
2200
2200
ENDCHAR
STARTCHAR uni1199
ENCODING 4505
SWIDTH 1020 0
DWIDTH 17 0
BBX 11 15 3 -2
BITMAP
EE00
2200
2200
2200
2220
23E0
2200
2200
2220
23E0
2200
2200
2200
2200
2200
ENDCHAR
STARTCHAR uni119A
ENCODING 4506
SWIDTH 1020 0
DWIDTH 17 0
BBX 13 13 2 0
BITMAP
00E0
0020
0020
0020
0020
0020
0020
0620
0200
0200
0200
0230
FFF8
ENDCHAR
STARTCHAR uni119B
ENCODING 4507
SWIDTH 1020 0
DWIDTH 17 0
BBX 13 15 2 -2
BITMAP
00E0
0020
0020
0020
0020
0020
0020
0000
0030
FFF8
0200
0200
0200
0200
0200
ENDCHAR
STARTCHAR uni119C
ENCODING 4508
SWIDTH 1020 0
DWIDTH 17 0
BBX 15 12 1 1
BITMAP
0070
0010
0010
0010
0010
0010
0010
0010
0010
0000
000C
FFFE
ENDCHAR
STARTCHAR uni119D
ENCODING 4509
SWIDTH 1020 0
DWIDTH 17 0
BBX 3 13 4 0
BITMAP
C0
40
40
40
40
40
40
00
00
40
20
20
20
ENDCHAR
STARTCHAR uni119E
ENCODING 4510
SWIDTH 1020 0
DWIDTH 17 0
BBX 2 4 6 5
BITMAP
80
40
40
40
ENDCHAR
STARTCHAR uni119F
ENCODING 4511
SWIDTH 1020 0
DWIDTH 17 0
BBX 7 15 4 -2
BITMAP
0E
02
02
02
02
02
22
3E
02
82
42
42
42
02
02
ENDCHAR
STARTCHAR uni11A0
ENCODING 4512
SWIDTH 1020 0
DWIDTH 17 0
BBX 11 12 3 1
BITMAP
0800
0400
0400
0400
0000
0040
FFE0
0400
0400
0400
0400
0400
ENDCHAR
STARTCHAR uni11A1
ENCODING 4513
SWIDTH 1020 0
DWIDTH 17 0
BBX 6 15 4 -2
BITMAP
1C
04
04
04
04
04
84
44
44
44
04
04
04
04
04
ENDCHAR
STARTCHAR uni11A2
ENCODING 4514
SWIDTH 1020 0
DWIDTH 17 0
BBX 5 4 5 5
BITMAP
90
48
48
48
ENDCHAR
STARTCHAR uni11A8
ENCODING 4520
SWIDTH 1020 0
DWIDTH 17 0
BBX 11 10 3 0
BITMAP
8000
FFE0
0020
0020
0020
0020
0020
0020
0020
0020
ENDCHAR
STARTCHAR uni11A9
ENCODING 4521
SWIDTH 1020 0
DWIDTH 17 0
BBX 12 9 2 1
BITMAP
8100
FDF0
0410
0410
0410
0410
0410
0410
0410
ENDCHAR
STARTCHAR uni11AA
ENCODING 4522
SWIDTH 1020 0
DWIDTH 17 0
BBX 13 10 2 0
BITMAP
8000
FCC0
0460
0440
0440
04A0
0490
0508
0608
0400
ENDCHAR
STARTCHAR uni11AB
ENCODING 4523
SWIDTH 1020 0
DWIDTH 17 0
BBX 12 7 2 2
BITMAP
C000
4000
4000
4000
4000
4060
3FF0
ENDCHAR
STARTCHAR uni11AC
ENCODING 4524
SWIDTH 1020 0
DWIDTH 17 0
BBX 13 9 2 0
BITMAP
C0C0
4060
4040
4040
40A0
4490
5908
2208
0400
ENDCHAR
STARTCHAR uni11AD
ENCODING 4525
SWIDTH 1020 0
DWIDTH 17 0
BBX 14 9 2 0
BITMAP
C0E0
4008
41FC
4020
40F0
4508
5908
2108
00F0
ENDCHAR
STARTCHAR uni11AE
ENCODING 4526
SWIDTH 1020 0
DWIDTH 17 0
BBX 12 8 2 2
BITMAP
0040
FFE0
4000
4000
4000
4000
4060
7FF0
ENDCHAR
STARTCHAR uni11AF
ENCODING 4527
SWIDTH 1020 0
DWIDTH 17 0
BBX 12 9 2 1
BITMAP
0040
FFC0
4040
0040
7FC0
4000
4000
4060
7FF0
ENDCHAR
STARTCHAR uni11B0
ENCODING 4528
SWIDTH 1020 0
DWIDTH 17 0
BBX 12 9 3 1
BITMAP
0100
FDF0
0810
0810
FC10
4010
4010
4210
7C10
ENDCHAR
STARTCHAR uni11B1
ENCODING 4529
SWIDTH 1020 0
DWIDTH 17 0
BBX 14 8 2 1
BITMAP
FDF8
0888
0888
FC88
4088
4088
42FC
7C80
ENDCHAR
STARTCHAR uni11B2
ENCODING 4530
SWIDTH 1020 0
DWIDTH 17 0
BBX 13 10 2 0
BITMAP
0018
FD88
0888
0888
FCF8
4088
4088
4288
7CF8
0088
ENDCHAR
STARTCHAR uni11B3
ENCODING 4531
SWIDTH 1020 0
DWIDTH 17 0
BBX 15 9 1 1
BITMAP
0030
FC18
0810
0810
FC28
4024
4042
4282
7D00
ENDCHAR
STARTCHAR uni11B4
ENCODING 4532
SWIDTH 1020 0
DWIDTH 17 0
BBX 14 9 1 1
BITMAP
0008
FDFC
0880
0890
FCF8
4080
4080
4288
7CFC
ENDCHAR
STARTCHAR uni11B5
ENCODING 4533
SWIDTH 1020 0
DWIDTH 17 0
BBX 15 9 1 1
BITMAP
0004
FDFC
0800
0918
FC88
4088
4090
4212
7DFE
ENDCHAR
STARTCHAR uni11B6
ENCODING 4534
SWIDTH 1020 0
DWIDTH 17 0
BBX 14 9 1 1
BITMAP
00E0
FC08
09FC
0820
FCF0
4108
4108
4308
7CF0
ENDCHAR
STARTCHAR uni11B7
ENCODING 4535
SWIDTH 1020 0
DWIDTH 17 0
BBX 11 8 3 1
BITMAP
FFE0
4020
4040
4040
4040
4040
7FC0
4000
ENDCHAR
STARTCHAR uni11B8
ENCODING 4536
SWIDTH 1020 0
DWIDTH 17 0
BBX 10 11 3 0
BITMAP
00C0
C040
4040
4040
7FC0
4040
4040
4040
4040
7FC0
4040
ENDCHAR
STARTCHAR uni11B9
ENCODING 4537
SWIDTH 1020 0
DWIDTH 17 0
BBX 15 10 1 0
BITMAP
0C30
C418
4410
4410
7C28
4424
4442
4482
7D00
4400
ENDCHAR
STARTCHAR uni11BA
ENCODING 4538
SWIDTH 1020 0
DWIDTH 17 0
BBX 12 9 2 1
BITMAP
0800
0600
0400
0C00
0B00
1080
2060
4020
8010
ENDCHAR
STARTCHAR uni11BB
ENCODING 4539
SWIDTH 1020 0
DWIDTH 17 0
BBX 14 9 2 1
BITMAP
1860
0C30
0820
0820
1450
1248
2184
4104
8200
ENDCHAR
STARTCHAR uni11BC
ENCODING 4540
SWIDTH 1020 0
DWIDTH 17 0
BBX 9 9 4 1
BITMAP
0800
3E00
4100
8080
8080
8080
8080
4100
3E00
ENDCHAR
STARTCHAR uni11BD
ENCODING 4541
SWIDTH 1020 0
DWIDTH 17 0
BBX 10 9 3 1
BITMAP
0080
FFC0
0400
0400
0C00
0A00
1180
60C0
8040
ENDCHAR
STARTCHAR uni11BE
ENCODING 4542
SWIDTH 1020 0
DWIDTH 17 0
BBX 11 9 2 1
BITMAP
1F00
0000
FFE0
4400
0400
0A00
1180
2040
C020
ENDCHAR
STARTCHAR uni11BF
ENCODING 4543
SWIDTH 1020 0
DWIDTH 17 0
BBX 10 10 3 1
BITMAP
00C0
FF40
6040
0040
01C0
1E40
E040
0080
0080
0080
ENDCHAR
STARTCHAR uni11C0
ENCODING 4544
SWIDTH 1020 0
DWIDTH 17 0
BBX 12 9 2 1
BITMAP
00C0
FFE0
4000
4180
7FC0
4000
4000
4060
7FF0
ENDCHAR
STARTCHAR uni11C1
ENCODING 4545
SWIDTH 1020 0
DWIDTH 17 0
BBX 13 9 2 1
BITMAP
4060
7FF0
0000
00C0
1040
0880
0880
8130
FFF8
ENDCHAR
STARTCHAR uni11C2
ENCODING 4546
SWIDTH 1020 0
DWIDTH 17 0
BBX 13 10 2 0
BITMAP
0F80
0010
FFF8
0200
0F80
1040
1040
1040
1040
0F80
ENDCHAR
STARTCHAR uni11C3
ENCODING 4547
SWIDTH 1020 0
DWIDTH 17 0
BBX 14 9 2 1
BITMAP
8000
FDF8
0410
0410
05F8
0480
0480
0484
04F8
ENDCHAR
STARTCHAR uni11C4
ENCODING 4548
SWIDTH 1020 0
DWIDTH 17 0
BBX 13 9 2 1
BITMAP
8240
F178
1108
1108
1288
1288
1448
1848
1808
ENDCHAR
STARTCHAR uni11C5
ENCODING 4549
SWIDTH 1020 0
DWIDTH 17 0
BBX 10 9 3 1
BITMAP
0400
C7C0
4040
4040
4040
4040
4440
5840
2040
ENDCHAR
STARTCHAR uni11C6
ENCODING 4550
SWIDTH 1020 0
DWIDTH 17 0
BBX 13 9 2 1
BITMAP
0010
C1F0
4100
4100
4100
4100
4500
5910
61F8
ENDCHAR
STARTCHAR uni11C7
ENCODING 4551
SWIDTH 1020 0
DWIDTH 17 0
BBX 13 9 2 1
BITMAP
00C0
C060
4040
4040
40A0
4090
4508
5A08
2400
ENDCHAR
STARTCHAR uni11C8
ENCODING 4552
SWIDTH 1020 0
DWIDTH 17 0
BBX 13 8 2 1
BITMAP
C040
4040
40A0
40A0
4110
4510
5A08
23F8
ENDCHAR
STARTCHAR uni11C9
ENCODING 4553
SWIDTH 1020 0
DWIDTH 17 0
BBX 13 9 2 1
BITMAP
0010
C3F8
4100
4120
41F0
4100
4500
5910
61F8
ENDCHAR
STARTCHAR uni11CA
ENCODING 4554
SWIDTH 1020 0
DWIDTH 17 0
BBX 12 9 2 1
BITMAP
0900
F9F0
8010
8010
8010
8010
8010
8810
FC10
ENDCHAR
STARTCHAR uni11CB
ENCODING 4555
SWIDTH 1020 0
DWIDTH 17 0
BBX 13 9 2 1
BITMAP
0800
FBF0
8020
8020
83F0
8100
8100
8908
FDF0
ENDCHAR
STARTCHAR uni11CC
ENCODING 4556
SWIDTH 1020 0
DWIDTH 17 0
BBX 15 9 1 1
BITMAP
0410
FF88
1088
1088
F894
4094
40A2
44A2
78C0
ENDCHAR
STARTCHAR uni11CD
ENCODING 4557
SWIDTH 1020 0
DWIDTH 17 0
BBX 14 8 2 1
BITMAP
FCC0
0840
0840
FC40
4040
4044
4258
7C20
ENDCHAR
STARTCHAR uni11CE
ENCODING 4558
SWIDTH 1020 0
DWIDTH 17 0
BBX 14 9 1 1
BITMAP
0008
FCF8
0880
0880
FC80
4080
4080
4288
7CFC
ENDCHAR
STARTCHAR uni11CF
ENCODING 4559
SWIDTH 1020 0
DWIDTH 17 0
BBX 16 9 1 1
BITMAP
004C
FBC1
121F
1204
FA0E
4211
4211
4651
7BCE
ENDCHAR
STARTCHAR uni11D0
ENCODING 4560
SWIDTH 1020 0
DWIDTH 17 0
BBX 14 8 2 1
BITMAP
FDF8
0810
0810
FDF8
4080
4080
4284
7CF8
ENDCHAR
STARTCHAR uni11D1
ENCODING 4561
SWIDTH 1020 0
DWIDTH 17 0
BBX 16 9 1 1
BITMAP
0008
FBEF
1121
1121
F921
4121
4121
45F1
7901
ENDCHAR
STARTCHAR uni11D2
ENCODING 4562
SWIDTH 1020 0
DWIDTH 17 0
BBX 16 9 1 1
BITMAP
0008
FFC4
1244
1244
FA4A
424A
4251
47F1
7A20
ENDCHAR
STARTCHAR uni11D3
ENCODING 4563
SWIDTH 1020 0
DWIDTH 17 0
BBX 16 10 1 0
BITMAP
00C8
FE44
1244
1244
FBCA
424A
4251
4251
7BE0
0240
ENDCHAR
STARTCHAR uni11D4
ENCODING 4564
SWIDTH 1020 0
DWIDTH 17 0
BBX 15 10 1 0
BITMAP
00D8
FE42
127E
1248
FBDC
4262
4262
4262
7BDC
0240
ENDCHAR
STARTCHAR uni11D5
ENCODING 4565
SWIDTH 1020 0
DWIDTH 17 0
BBX 14 14 1 -1
BITMAP
000C
0184
0084
00FC
FC84
0884
08FC
FC84
4020
4078
4284
7C84
0084
0078
ENDCHAR
STARTCHAR uni11D6
ENCODING 4566
SWIDTH 1020 0
DWIDTH 17 0
BBX 14 9 1 1
BITMAP
0110
F888
1088
1088
F888
4198
4154
4664
7C44
ENDCHAR
STARTCHAR uni11D7
ENCODING 4567
SWIDTH 1020 0
DWIDTH 17 0
BBX 14 8 1 1
BITMAP
FE20
0420
0450
FE50
4088
4088
4104
7FFC
ENDCHAR
STARTCHAR uni11D8
ENCODING 4568
SWIDTH 1020 0
DWIDTH 17 0
BBX 13 10 2 0
BITMAP
0008
FDF8
0908
0808
FC38
41D0
4010
4220
7C40
0080
ENDCHAR
STARTCHAR uni11D9
ENCODING 4569
SWIDTH 1020 0
DWIDTH 17 0
BBX 15 9 2 1
BITMAP
0004
FDFE
0800
0820
F870
4088
4088
4288
7C70
ENDCHAR
STARTCHAR uni11DA
ENCODING 4570
SWIDTH 1020 0
DWIDTH 17 0
BBX 12 9 2 1
BITMAP
0100
FDF0
4410
4410
4410
4410
4410
7E10
4010
ENDCHAR
STARTCHAR uni11DB
ENCODING 4571
SWIDTH 1020 0
DWIDTH 17 0
BBX 14 8 1 1
BITMAP
FDF8
4410
4410
45F0
4480
4480
7E84
40F8
ENDCHAR
STARTCHAR uni11DC
ENCODING 4572
SWIDTH 1020 0
DWIDTH 17 0
BBX 13 10 2 0
BITMAP
0018
FD88
4488
4488
44F8
4488
4488
7E88
40F8
0088
ENDCHAR
STARTCHAR uni11DD
ENCODING 4573
SWIDTH 1020 0
DWIDTH 17 0
BBX 14 9 2 1
BITMAP
0060
FC30
4420
4420
4450
4448
4484
7F04
4200
ENDCHAR
STARTCHAR uni11DE
ENCODING 4574
SWIDTH 1020 0
DWIDTH 17 0
BBX 16 9 1 1
BITMAP
0088
FC44
4444
4444
44AA
44AA
4511
7F11
4220
ENDCHAR
STARTCHAR uni11DF
ENCODING 4575
SWIDTH 1020 0
DWIDTH 17 0
BBX 15 8 1 1
BITMAP
FC10
4410
4428
4428
4444
4444
7E82
40FE
ENDCHAR
STARTCHAR uni11E0
ENCODING 4576
SWIDTH 1020 0
DWIDTH 17 0
BBX 14 11 2 0
BITMAP
00F0
0004
FDFC
4420
4420
4420
4450
4448
7E84
4104
0200
ENDCHAR
STARTCHAR uni11E1
ENCODING 4577
SWIDTH 1020 0
DWIDTH 17 0
BBX 14 9 2 1
BITMAP
0070
FC04
44FC
4410
4478
4484
4484
7E84
4078
ENDCHAR
STARTCHAR uni11E2
ENCODING 4578
SWIDTH 1020 0
DWIDTH 17 0
BBX 9 13 3 -1
BITMAP
FF00
4100
4100
4100
7F80
4000
0800
3E00
4100
4100
4100
4100
3E00
ENDCHAR
STARTCHAR uni11E3
ENCODING 4579
SWIDTH 1020 0
DWIDTH 17 0
BBX 14 10 2 0
BITMAP
0C00
C5F8
4410
4410
7DF8
4480
4480
4484
7CF8
4400
ENDCHAR
STARTCHAR uni11E4
ENCODING 4580
SWIDTH 1020 0
DWIDTH 17 0
BBX 15 10 1 0
BITMAP
0C04
C5FC
4400
4518
7C88
4488
4490
4412
7DFE
4400
ENDCHAR
STARTCHAR uni11E5
ENCODING 4581
SWIDTH 1020 0
DWIDTH 17 0
BBX 13 10 2 0
BITMAP
0C00
C4E0
4408
45F8
7C20
44F0
4508
4508
7D08
44F0
ENDCHAR
STARTCHAR uni11E6
ENCODING 4582
SWIDTH 1020 0
DWIDTH 17 0
BBX 9 15 4 -2
BITMAP
0180
C080
4080
7F80
4080
4080
7F80
4080
0800
3E00
4100
4100
4100
4100
3E00
ENDCHAR
STARTCHAR uni11E7
ENCODING 4583
SWIDTH 1020 0
DWIDTH 17 0
BBX 13 9 2 1
BITMAP
1900
0DF8
0808
0808
1408
1408
2208
4208
8008
ENDCHAR
STARTCHAR uni11E8
ENCODING 4584
SWIDTH 1020 0
DWIDTH 17 0
BBX 14 9 2 1
BITMAP
1808
0CF8
0880
0880
1480
1480
2280
4288
80FC
ENDCHAR
STARTCHAR uni11E9
ENCODING 4585
SWIDTH 1020 0
DWIDTH 17 0
BBX 14 9 2 1
BITMAP
1800
0DF8
0810
0810
15F8
1480
2280
4284
81F8
ENDCHAR
STARTCHAR uni11EA
ENCODING 4586
SWIDTH 1020 0
DWIDTH 17 0
BBX 13 10 2 0
BITMAP
1818
0D88
0888
0888
14F8
1488
2288
4288
80F8
0088
ENDCHAR
STARTCHAR uni11EB
ENCODING 4587
SWIDTH 1020 0
DWIDTH 17 0
BBX 9 9 4 1
BITMAP
0800
0800
1400
2200
2200
4100
8080
8080
FF80
ENDCHAR
STARTCHAR uni11EC
ENCODING 4588
SWIDTH 1020 0
DWIDTH 17 0
BBX 12 9 2 1
BITMAP
1200
13F0
7810
8410
8410
8410
8410
8410
7810
ENDCHAR
STARTCHAR uni11ED
ENCODING 4589
SWIDTH 1020 0
DWIDTH 17 0
BBX 14 9 1 1
BITMAP
2420
27BC
7084
8884
8884
8884
8884
8884
7084
ENDCHAR
STARTCHAR uni11EE
ENCODING 4590
SWIDTH 1020 0
DWIDTH 17 0
BBX 13 9 2 1
BITMAP
1020
1020
78F0
8508
8508
8508
8508
8508
78F0
ENDCHAR
STARTCHAR uni11EF
ENCODING 4591
SWIDTH 1020 0
DWIDTH 17 0
BBX 13 10 2 0
BITMAP
1008
11F8
7908
8408
8438
85D0
8410
8420
7840
0080
ENDCHAR
STARTCHAR uni11F0
ENCODING 4592
SWIDTH 1020 0
DWIDTH 17 0
BBX 9 9 4 1
BITMAP
0800
3E00
4100
8080
8080
8080
8080
4100
3E00
ENDCHAR
STARTCHAR uni11F1
ENCODING 4593
SWIDTH 1020 0
DWIDTH 17 0
BBX 13 9 2 1
BITMAP
10C0
1060
7840
8440
84A0
8490
8508
8608
7C00
ENDCHAR
STARTCHAR uni11F2
ENCODING 4594
SWIDTH 1020 0
DWIDTH 17 0
BBX 14 9 2 1
BITMAP
1020
1020
7850
8450
8488
8488
8504
8504
79FC
ENDCHAR
STARTCHAR uni11F3
ENCODING 4595
SWIDTH 1020 0
DWIDTH 17 0
BBX 14 10 1 0
BITMAP
020C
FEC4
0044
8C44
447C
4444
4844
0944
FF7C
0044
ENDCHAR
STARTCHAR uni11F4
ENCODING 4596
SWIDTH 1020 0
DWIDTH 17 0
BBX 11 15 3 -2
BITMAP
0080
7FC0
0000
2300
1100
1100
0240
FFE0
0400
1F00
2080
2080
2080
2080
1F00
ENDCHAR
STARTCHAR uni11F5
ENCODING 4597
SWIDTH 1020 0
DWIDTH 17 0
BBX 13 9 2 1
BITMAP
7000
0580
FC80
1080
7880
8480
8488
84B0
78C0
ENDCHAR
STARTCHAR uni11F6
ENCODING 4598
SWIDTH 1020 0
DWIDTH 17 0
BBX 14 9 2 1
BITMAP
7000
05F8
FC10
1010
79F8
8480
8480
8484
78F8
ENDCHAR
STARTCHAR uni11F7
ENCODING 4599
SWIDTH 1020 0
DWIDTH 17 0
BBX 14 9 2 1
BITMAP
7000
05F8
FC88
1088
7888
8488
8488
84FC
7880
ENDCHAR
STARTCHAR uni11F8
ENCODING 4600
SWIDTH 1020 0
DWIDTH 17 0
BBX 13 10 2 0
BITMAP
0018
7188
0488
FC88
10F8
7888
8488
8488
84F8
7888
ENDCHAR
STARTCHAR uni11F9
ENCODING 4601
SWIDTH 1020 0
DWIDTH 17 0
BBX 11 11 3 0
BITMAP
00C0
FFE0
0000
0000
0400
1F00
2080
2080
2080
2080
1F00
ENDCHAR
STARTCHAR uni137F
ENCODING 4991
SWIDTH 1020 0
DWIDTH 17 0
BBX 15 14 1 -1
BITMAP
0FE0
1838
37CC
6CCC
ECC6
CCC6
C8C6
C8C6
C8C4
C8CC
60F0
7000
3800
0F80
ENDCHAR
STARTCHAR uni1F06
ENCODING 7942
SWIDTH 480 0
DWIDTH 8 0
BBX 7 14 1 0
BITMAP
3C
42
18
18
08
10
00
62
92
94
8C
88
98
66
ENDCHAR
STARTCHAR uni1F07
ENCODING 7943
SWIDTH 480 0
DWIDTH 8 0
BBX 7 14 1 0
BITMAP
78
84
30
30
20
10
00
62
92
94
8C
88
98
66
ENDCHAR
STARTCHAR uni1F0E
ENCODING 7950
SWIDTH 720 0
DWIDTH 12 0
BBX 12 15 -1 0
BITMAP
7800
8400
3000
3000
1200
2200
0500
0500
0500
0880
0880
0F80
1040
1040
78F0
ENDCHAR
STARTCHAR uni1F0F
ENCODING 7951
SWIDTH 720 0
DWIDTH 12 0
BBX 12 15 -1 0
BITMAP
7800
8400
3000
3000
2200
1200
0500
0500
0500
0880
0880
0F80
1040
1040
78F0
ENDCHAR
STARTCHAR uni1F26
ENCODING 7974
SWIDTH 420 0
DWIDTH 7 0
BBX 6 18 1 -4
BITMAP
78
84
30
30
10
20
00
98
64
44
44
44
44
44
04
04
04
04
ENDCHAR
STARTCHAR uni1F27
ENCODING 7975
SWIDTH 420 0
DWIDTH 7 0
BBX 6 18 1 -4
BITMAP
78
84
30
30
20
10
00
98
64
44
44
44
44
44
04
04
04
04
ENDCHAR
STARTCHAR uni1F2E
ENCODING 7982
SWIDTH 1020 0
DWIDTH 17 0
BBX 16 15 0 0
BITMAP
7800
8400
3000
3000
17DF
2104
0104
0104
0104
01FC
0104
0104
0104
0104
07DF
ENDCHAR
STARTCHAR uni1F2F
ENCODING 7983
SWIDTH 1020 0
DWIDTH 17 0
BBX 16 15 0 0
BITMAP
7800
8400
3000
3000
27DF
1104
0104
0104
0104
01FC
0104
0104
0104
0104
07DF
ENDCHAR
STARTCHAR uni1F36
ENCODING 7990
SWIDTH 360 0
DWIDTH 6 0
BBX 6 14 0 0
BITMAP
78
84
30
30
10
20
00
20
60
20
20
20
28
10
ENDCHAR
STARTCHAR uni1F37
ENCODING 7991
SWIDTH 360 0
DWIDTH 6 0
BBX 6 14 0 0
BITMAP
78
84
30
30
20
10
00
20
60
20
20
20
28
10
ENDCHAR
STARTCHAR uni1F3E
ENCODING 7998
SWIDTH 660 0
DWIDTH 11 0
BBX 10 15 0 0
BITMAP
7800
8400
3000
3000
17C0
2100
0100
0100
0100
0100
0100
0100
0100
0100
07C0
ENDCHAR
STARTCHAR uni1F3F
ENCODING 7999
SWIDTH 660 0
DWIDTH 11 0
BBX 10 15 0 0
BITMAP
7800
8400
3000
3000
27C0
1100
0100
0100
0100
0100
0100
0100
0100
0100
07C0
ENDCHAR
STARTCHAR uni1F56
ENCODING 8022
SWIDTH 420 0
DWIDTH 7 0
BBX 6 14 1 0
BITMAP
78
84
30
30
10
20
00
C8
44
44
44
44
48
30
ENDCHAR
STARTCHAR uni1F57
ENCODING 8023
SWIDTH 420 0
DWIDTH 7 0
BBX 6 14 1 0
BITMAP
78
84
30
30
20
10
00
C8
44
44
44
44
48
30
ENDCHAR
STARTCHAR uni1F5F
ENCODING 8031
SWIDTH 960 0
DWIDTH 16 0
BBX 15 14 0 0
BITMAP
7800
8400
3000
3F1E
2208
1110
0110
00A0
00E0
0040
0040
0040
0040
01F0
ENDCHAR
STARTCHAR uni1F66
ENCODING 8038
SWIDTH 600 0
DWIDTH 10 0
BBX 9 14 1 0
BITMAP
3C00
4200
1800
1800
0800
1000
0000
2200
4100
8080
8880
8880
8880
7700
ENDCHAR
STARTCHAR uni1F67
ENCODING 8039
SWIDTH 600 0
DWIDTH 10 0
BBX 9 14 1 0
BITMAP
3C00
4200
1800
1800
1000
0800
0000
2200
4100
8080
8880
8880
8880
7700
ENDCHAR
STARTCHAR uni1F6E
ENCODING 8046
SWIDTH 840 0
DWIDTH 14 0
BBX 13 15 0 0
BITMAP
7800
8400
3000
3000
13E0
2410
0808
0808
0808
0808
0410
0410
0220
0A28
0E38
ENDCHAR
STARTCHAR uni1F6F
ENCODING 8047
SWIDTH 840 0
DWIDTH 14 0
BBX 13 15 0 0
BITMAP
7800
8400
3000
3000
23E0
1410
0808
0808
0808
0808
0410
0410
0220
0A28
0E38
ENDCHAR
STARTCHAR uni1F86
ENCODING 8070
SWIDTH 480 0
DWIDTH 8 0
BBX 7 19 1 -5
BITMAP
3C
42
18
18
08
10
00
62
92
94
8C
88
98
66
00
60
20
28
10
ENDCHAR
STARTCHAR uni1F87
ENCODING 8071
SWIDTH 480 0
DWIDTH 8 0
BBX 7 19 1 -5
BITMAP
78
84
30
30
20
10
00
62
92
94
8C
88
98
66
00
60
20
28
10
ENDCHAR
STARTCHAR uni1F8E
ENCODING 8078
SWIDTH 960 0
DWIDTH 16 0
BBX 16 15 -1 0
BITMAP
7800
8400
3000
3000
1200
2200
0500
0500
0500
0880
0880
0F8C
1044
1045
78F2
ENDCHAR
STARTCHAR uni1F8F
ENCODING 8079
SWIDTH 960 0
DWIDTH 16 0
BBX 16 15 -1 0
BITMAP
7800
8400
3000
3000
2200
1200
0500
0500
0500
0880
0880
0F8C
1044
1045
78F2
ENDCHAR
STARTCHAR uni1F96
ENCODING 8086
SWIDTH 420 0
DWIDTH 7 0
BBX 6 18 1 -4
BITMAP
78
84
30
30
10
20
00
98
64
44
44
44
44
44
04
C4
44
64
ENDCHAR
STARTCHAR uni1F97
ENCODING 8087
SWIDTH 420 0
DWIDTH 7 0
BBX 6 18 1 -4
BITMAP
78
84
30
30
20
10
00
98
64
44
44
44
44
44
04
C4
44
64
ENDCHAR
STARTCHAR uni1F9E
ENCODING 8094
SWIDTH 1260 0
DWIDTH 21 0
BBX 20 15 0 0
BITMAP
780000
840000
300000
300000
17DF00
210400
010400
010400
010400
01FC00
010400
0104C0
010440
010450
07DF20
ENDCHAR
STARTCHAR uni1F9F
ENCODING 8095
SWIDTH 1260 0
DWIDTH 21 0
BBX 20 15 0 0
BITMAP
780000
840000
300000
300000
27DF00
110400
010400
010400
010400
01FC00
010400
0104C0
010440
010450
07DF20
ENDCHAR
STARTCHAR uni1FA6
ENCODING 8102
SWIDTH 600 0
DWIDTH 10 0
BBX 9 19 1 -5
BITMAP
3C00
4200
1800
1800
0800
1000
0000
2200
4100
8080
8880
8880
8880
7700
0000
1800
0800
0A00
0400
ENDCHAR
STARTCHAR uni1FA7
ENCODING 8103
SWIDTH 600 0
DWIDTH 10 0
BBX 9 19 1 -5
BITMAP
3C00
4200
1800
1800
1000
0800
0000
2200
4100
8080
8880
8880
8880
7700
0000
1800
0800
0A00
0400
ENDCHAR
STARTCHAR uni1FAE
ENCODING 8110
SWIDTH 1140 0
DWIDTH 19 0
BBX 18 15 0 0
BITMAP
780000
840000
300000
300000
13E000
241000
080800
080800
080800
080800
041000
041300
022100
0A2940
0E3880
ENDCHAR
STARTCHAR uni1FAF
ENCODING 8111
SWIDTH 1140 0
DWIDTH 19 0
BBX 18 15 0 0
BITMAP
780000
840000
300000
300000
23E000
141000
080800
080800
080800
080800
041000
041300
022100
0A2940
0E3880
ENDCHAR
STARTCHAR uni1FB6
ENCODING 8118
SWIDTH 480 0
DWIDTH 8 0
BBX 7 10 1 0
BITMAP
38
44
00
62
92
94
8C
88
98
66
ENDCHAR
STARTCHAR uni1FB7
ENCODING 8119
SWIDTH 480 0
DWIDTH 8 0
BBX 7 15 1 -5
BITMAP
38
44
00
62
92
94
8C
88
98
66
00
60
20
28
10
ENDCHAR
STARTCHAR uni1FC0
ENCODING 8128
SWIDTH 420 0
DWIDTH 7 0
BBX 6 2 1 11
BITMAP
78
84
ENDCHAR
STARTCHAR uni1FC1
ENCODING 8129
SWIDTH 360 0
DWIDTH 6 0
BBX 5 5 1 11
BITMAP
70
88
00
D8
D8
ENDCHAR
STARTCHAR uni1FC6
ENCODING 8134
SWIDTH 420 0
DWIDTH 7 0
BBX 6 14 1 -4
BITMAP
38
44
00
98
64
44
44
44
44
44
04
04
04
04
ENDCHAR
STARTCHAR uni1FC7
ENCODING 8135
SWIDTH 420 0
DWIDTH 7 0
BBX 6 14 1 -4
BITMAP
38
44
00
98
64
44
44
44
44
44
04
C4
44
64
ENDCHAR
STARTCHAR uni1FCF
ENCODING 8143
SWIDTH 420 0
DWIDTH 7 0
BBX 6 6 1 11
BITMAP
78
84
30
30
10
20
ENDCHAR
STARTCHAR uni1FD6
ENCODING 8150
SWIDTH 300 0
DWIDTH 5 0
BBX 5 10 0 0
BITMAP
70
88
00
20
60
20
20
20
28
10
ENDCHAR
STARTCHAR uni1FD7
ENCODING 8151
SWIDTH 300 0
DWIDTH 5 0
BBX 5 14 0 0
BITMAP
70
88
00
D8
D8
00
00
20
60
20
20
20
28
10
ENDCHAR
STARTCHAR uni1FDF
ENCODING 8159
SWIDTH 420 0
DWIDTH 7 0
BBX 6 6 1 11
BITMAP
78
84
30
30
20
10
ENDCHAR
STARTCHAR uni1FE6
ENCODING 8166
SWIDTH 420 0
DWIDTH 7 0
BBX 6 11 1 0
BITMAP
38
44
00
00
C8
44
44
44
44
48
30
ENDCHAR
STARTCHAR uni1FE7
ENCODING 8167
SWIDTH 420 0
DWIDTH 7 0
BBX 6 14 1 0
BITMAP
38
44
00
6C
6C
00
00
C8
44
44
44
44
48
30
ENDCHAR
STARTCHAR uni1FF6
ENCODING 8182
SWIDTH 600 0
DWIDTH 10 0
BBX 9 10 1 0
BITMAP
1C00
2200
0000
2200
4100
8080
8880
8880
8880
7700
ENDCHAR
STARTCHAR uni1FF7
ENCODING 8183
SWIDTH 600 0
DWIDTH 10 0
BBX 9 15 1 -5
BITMAP
1C00
2200
0000
2200
4100
8080
8880
8880
8880
7700
0000
1800
0800
0A00
0400
ENDCHAR
STARTCHAR uni204C
ENCODING 8268
SWIDTH 540 0
DWIDTH 9 0
BBX 8 5 1 3
BITMAP
3D
7D
FD
7D
3D
ENDCHAR
STARTCHAR uni204D
ENCODING 8269
SWIDTH 540 0
DWIDTH 9 0
BBX 8 5 1 3
BITMAP
BC
BE
BF
BE
BC
ENDCHAR
STARTCHAR C070
ENCODING 8355
SWIDTH 720 0
DWIDTH 12 0
BBX 9 11 2 0
BITMAP
FF80
2080
2080
2000
2700
3C80
2480
2700
2500
2480
FC80
ENDCHAR
STARTCHAR C080
ENCODING 8359
SWIDTH 840 0
DWIDTH 14 0
BBX 11 11 2 0
BITMAP
FF00
2180
2080
FFE0
2080
2180
3F00
2000
2000
2000
F800
ENDCHAR
STARTCHAR C082
ENCODING 8360
SWIDTH 1080 0
DWIDTH 18 0
BBX 15 11 2 0
BITMAP
FE00
2100
2080
FFE0
209E
2122
3E20
231C
2102
2122
F8FC
ENDCHAR
STARTCHAR uni20AF
ENCODING 8367
SWIDTH 720 0
DWIDTH 12 0
BBX 9 12 2 0
BITMAP
0400
0800
3E00
4900
1080
1080
1080
2080
2080
6080
B100
4E00
ENDCHAR
STARTCHAR uni2116
ENCODING 8470
SWIDTH 1080 0
DWIDTH 18 0
BBX 16 11 1 0
BITMAP
E3EE
3091
3091
2891
2891
248E
2280
2280
2180
2180
F880
ENDCHAR
STARTCHAR uni2800
ENCODING 10240
SWIDTH 600 0
DWIDTH 10 0
BBX 7 15 1 0
BITMAP
44
AA
44
00
44
AA
44
00
44
AA
44
00
44
AA
44
ENDCHAR
STARTCHAR uni2801
ENCODING 10241
SWIDTH 600 0
DWIDTH 10 0
BBX 7 15 1 0
BITMAP
44
EA
44
00
44
AA
44
00
44
AA
44
00
44
AA
44
ENDCHAR
STARTCHAR uni2802
ENCODING 10242
SWIDTH 600 0
DWIDTH 10 0
BBX 7 15 1 0
BITMAP
44
AA
44
00
44
EA
44
00
44
AA
44
00
44
AA
44
ENDCHAR
STARTCHAR uni2803
ENCODING 10243
SWIDTH 600 0
DWIDTH 10 0
BBX 7 15 1 0
BITMAP
44
EA
44
00
44
EA
44
00
44
AA
44
00
44
AA
44
ENDCHAR
STARTCHAR uni2804
ENCODING 10244
SWIDTH 600 0
DWIDTH 10 0
BBX 7 15 1 0
BITMAP
44
AA
44
00
44
AA
44
00
44
EA
44
00
44
AA
44
ENDCHAR
STARTCHAR uni2805
ENCODING 10245
SWIDTH 600 0
DWIDTH 10 0
BBX 7 15 1 0
BITMAP
44
EA
44
00
44
AA
44
00
44
EA
44
00
44
AA
44
ENDCHAR
STARTCHAR uni2806
ENCODING 10246
SWIDTH 600 0
DWIDTH 10 0
BBX 7 15 1 0
BITMAP
44
AA
44
00
44
EA
44
00
44
EA
44
00
44
AA
44
ENDCHAR
STARTCHAR uni2807
ENCODING 10247
SWIDTH 600 0
DWIDTH 10 0
BBX 7 15 1 0
BITMAP
44
EA
44
00
44
EA
44
00
44
EA
44
00
44
AA
44
ENDCHAR
STARTCHAR uni2808
ENCODING 10248
SWIDTH 600 0
DWIDTH 10 0
BBX 7 15 1 0
BITMAP
44
AA
44
00
44
AA
44
00
44
AA
44
00
44
EA
44
ENDCHAR
STARTCHAR uni2809
ENCODING 10249
SWIDTH 600 0
DWIDTH 10 0
BBX 7 15 1 0
BITMAP
44
EA
44
00
44
AA
44
00
44
AA
44
00
44
EA
44
ENDCHAR
STARTCHAR uni280A
ENCODING 10250
SWIDTH 600 0
DWIDTH 10 0
BBX 7 15 1 0
BITMAP
44
AA
44
00
44
EA
44
00
44
AA
44
00
44
EA
44
ENDCHAR
STARTCHAR uni280B
ENCODING 10251
SWIDTH 600 0
DWIDTH 10 0
BBX 7 15 1 0
BITMAP
44
EA
44
00
44
EA
44
00
44
AA
44
00
44
EA
44
ENDCHAR
STARTCHAR uni280C
ENCODING 10252
SWIDTH 600 0
DWIDTH 10 0
BBX 7 15 1 0
BITMAP
44
AA
44
00
44
AA
44
00
44
EA
44
00
44
EA
44
ENDCHAR
STARTCHAR uni280D
ENCODING 10253
SWIDTH 600 0
DWIDTH 10 0
BBX 7 15 1 0
BITMAP
44
EA
44
00
44
AA
44
00
44
EA
44
00
44
EA
44
ENDCHAR
STARTCHAR uni280E
ENCODING 10254
SWIDTH 600 0
DWIDTH 10 0
BBX 7 15 1 0
BITMAP
44
AA
44
00
44
EA
44
00
44
EA
44
00
44
EA
44
ENDCHAR
STARTCHAR uni280F
ENCODING 10255
SWIDTH 600 0
DWIDTH 10 0
BBX 7 15 1 0
BITMAP
44
EA
44
00
44
EA
44
00
44
EA
44
00
44
EA
44
ENDCHAR
STARTCHAR uni2810
ENCODING 10256
SWIDTH 600 0
DWIDTH 10 0
BBX 7 15 1 0
BITMAP
44
AE
44
00
44
AA
44
00
44
AA
44
00
44
AA
44
ENDCHAR
STARTCHAR uni2811
ENCODING 10257
SWIDTH 600 0
DWIDTH 10 0
BBX 7 15 1 0
BITMAP
44
EE
44
00
44
AA
44
00
44
AA
44
00
44
AA
44
ENDCHAR
STARTCHAR uni2812
ENCODING 10258
SWIDTH 600 0
DWIDTH 10 0
BBX 7 15 1 0
BITMAP
44
AE
44
00
44
EA
44
00
44
AA
44
00
44
AA
44
ENDCHAR
STARTCHAR uni2813
ENCODING 10259
SWIDTH 600 0
DWIDTH 10 0
BBX 7 15 1 0
BITMAP
44
EE
44
00
44
EA
44
00
44
AA
44
00
44
AA
44
ENDCHAR
STARTCHAR uni2814
ENCODING 10260
SWIDTH 600 0
DWIDTH 10 0
BBX 7 15 1 0
BITMAP
44
AE
44
00
44
AA
44
00
44
EA
44
00
44
AA
44
ENDCHAR
STARTCHAR uni2815
ENCODING 10261
SWIDTH 600 0
DWIDTH 10 0
BBX 7 15 1 0
BITMAP
44
EE
44
00
44
AA
44
00
44
EA
44
00
44
AA
44
ENDCHAR
STARTCHAR uni2816
ENCODING 10262
SWIDTH 600 0
DWIDTH 10 0
BBX 7 15 1 0
BITMAP
44
AE
44
00
44
EA
44
00
44
EA
44
00
44
AA
44
ENDCHAR
STARTCHAR uni2817
ENCODING 10263
SWIDTH 600 0
DWIDTH 10 0
BBX 7 15 1 0
BITMAP
44
EE
44
00
44
EA
44
00
44
EA
44
00
44
AA
44
ENDCHAR
STARTCHAR uni2818
ENCODING 10264
SWIDTH 600 0
DWIDTH 10 0
BBX 7 15 1 0
BITMAP
44
AE
44
00
44
AA
44
00
44
AA
44
00
44
EA
44
ENDCHAR
STARTCHAR uni2819
ENCODING 10265
SWIDTH 600 0
DWIDTH 10 0
BBX 7 15 1 0
BITMAP
44
EE
44
00
44
AA
44
00
44
AA
44
00
44
EA
44
ENDCHAR
STARTCHAR uni281A
ENCODING 10266
SWIDTH 600 0
DWIDTH 10 0
BBX 7 15 1 0
BITMAP
44
AE
44
00
44
EA
44
00
44
AA
44
00
44
EA
44
ENDCHAR
STARTCHAR uni281B
ENCODING 10267
SWIDTH 600 0
DWIDTH 10 0
BBX 7 15 1 0
BITMAP
44
EE
44
00
44
EA
44
00
44
AA
44
00
44
EA
44
ENDCHAR
STARTCHAR uni281C
ENCODING 10268
SWIDTH 600 0
DWIDTH 10 0
BBX 7 15 1 0
BITMAP
44
AE
44
00
44
AA
44
00
44
EA
44
00
44
EA
44
ENDCHAR
STARTCHAR uni281D
ENCODING 10269
SWIDTH 600 0
DWIDTH 10 0
BBX 7 15 1 0
BITMAP
44
EE
44
00
44
AA
44
00
44
EA
44
00
44
EA
44
ENDCHAR
STARTCHAR uni281E
ENCODING 10270
SWIDTH 600 0
DWIDTH 10 0
BBX 7 15 1 0
BITMAP
44
AE
44
00
44
EA
44
00
44
EA
44
00
44
EA
44
ENDCHAR
STARTCHAR uni281F
ENCODING 10271
SWIDTH 600 0
DWIDTH 10 0
BBX 7 15 1 0
BITMAP
44
EE
44
00
44
EA
44
00
44
EA
44
00
44
EA
44
ENDCHAR
STARTCHAR uni2820
ENCODING 10272
SWIDTH 600 0
DWIDTH 10 0
BBX 7 15 1 0
BITMAP
44
AA
44
00
44
AE
44
00
44
AA
44
00
44
AA
44
ENDCHAR
STARTCHAR uni2821
ENCODING 10273
SWIDTH 600 0
DWIDTH 10 0
BBX 7 15 1 0
BITMAP
44
EA
44
00
44
AE
44
00
44
AA
44
00
44
AA
44
ENDCHAR
STARTCHAR uni2822
ENCODING 10274
SWIDTH 600 0
DWIDTH 10 0
BBX 7 15 1 0
BITMAP
44
AA
44
00
44
EE
44
00
44
AA
44
00
44
AA
44
ENDCHAR
STARTCHAR uni2823
ENCODING 10275
SWIDTH 600 0
DWIDTH 10 0
BBX 7 15 1 0
BITMAP
44
EA
44
00
44
EE
44
00
44
AA
44
00
44
AA
44
ENDCHAR
STARTCHAR uni2824
ENCODING 10276
SWIDTH 600 0
DWIDTH 10 0
BBX 7 15 1 0
BITMAP
44
AA
44
00
44
AE
44
00
44
EA
44
00
44
AA
44
ENDCHAR
STARTCHAR uni2825
ENCODING 10277
SWIDTH 600 0
DWIDTH 10 0
BBX 7 15 1 0
BITMAP
44
EA
44
00
44
AE
44
00
44
EA
44
00
44
AA
44
ENDCHAR
STARTCHAR uni2826
ENCODING 10278
SWIDTH 600 0
DWIDTH 10 0
BBX 7 15 1 0
BITMAP
44
AA
44
00
44
EE
44
00
44
EA
44
00
44
AA
44
ENDCHAR
STARTCHAR uni2827
ENCODING 10279
SWIDTH 600 0
DWIDTH 10 0
BBX 7 15 1 0
BITMAP
44
EA
44
00
44
EE
44
00
44
EA
44
00
44
AA
44
ENDCHAR
STARTCHAR uni2828
ENCODING 10280
SWIDTH 600 0
DWIDTH 10 0
BBX 7 15 1 0
BITMAP
44
AA
44
00
44
AE
44
00
44
AA
44
00
44
EA
44
ENDCHAR
STARTCHAR uni2829
ENCODING 10281
SWIDTH 600 0
DWIDTH 10 0
BBX 7 15 1 0
BITMAP
44
EA
44
00
44
AE
44
00
44
AA
44
00
44
EA
44
ENDCHAR
STARTCHAR uni282A
ENCODING 10282
SWIDTH 600 0
DWIDTH 10 0
BBX 7 15 1 0
BITMAP
44
AA
44
00
44
EE
44
00
44
AA
44
00
44
EA
44
ENDCHAR
STARTCHAR uni282B
ENCODING 10283
SWIDTH 600 0
DWIDTH 10 0
BBX 7 15 1 0
BITMAP
44
EA
44
00
44
EE
44
00
44
AA
44
00
44
EA
44
ENDCHAR
STARTCHAR uni282C
ENCODING 10284
SWIDTH 600 0
DWIDTH 10 0
BBX 7 15 1 0
BITMAP
44
AA
44
00
44
AE
44
00
44
EA
44
00
44
EA
44
ENDCHAR
STARTCHAR uni282D
ENCODING 10285
SWIDTH 600 0
DWIDTH 10 0
BBX 7 15 1 0
BITMAP
44
EA
44
00
44
AE
44
00
44
EA
44
00
44
EA
44
ENDCHAR
STARTCHAR uni282E
ENCODING 10286
SWIDTH 600 0
DWIDTH 10 0
BBX 7 15 1 0
BITMAP
44
AA
44
00
44
EE
44
00
44
EA
44
00
44
EA
44
ENDCHAR
STARTCHAR uni282F
ENCODING 10287
SWIDTH 600 0
DWIDTH 10 0
BBX 7 15 1 0
BITMAP
44
EA
44
00
44
EE
44
00
44
EA
44
00
44
EA
44
ENDCHAR
STARTCHAR uni2830
ENCODING 10288
SWIDTH 600 0
DWIDTH 10 0
BBX 7 15 1 0
BITMAP
44
AE
44
00
44
AE
44
00
44
AA
44
00
44
AA
44
ENDCHAR
STARTCHAR uni2831
ENCODING 10289
SWIDTH 600 0
DWIDTH 10 0
BBX 7 15 1 0
BITMAP
44
EE
44
00
44
AE
44
00
44
AA
44
00
44
AA
44
ENDCHAR
STARTCHAR uni2832
ENCODING 10290
SWIDTH 600 0
DWIDTH 10 0
BBX 7 15 1 0
BITMAP
44
AE
44
00
44
EE
44
00
44
AA
44
00
44
AA
44
ENDCHAR
STARTCHAR uni2833
ENCODING 10291
SWIDTH 600 0
DWIDTH 10 0
BBX 7 15 1 0
BITMAP
44
EE
44
00
44
EE
44
00
44
AA
44
00
44
AA
44
ENDCHAR
STARTCHAR uni2834
ENCODING 10292
SWIDTH 600 0
DWIDTH 10 0
BBX 7 15 1 0
BITMAP
44
AE
44
00
44
AE
44
00
44
EA
44
00
44
AA
44
ENDCHAR
STARTCHAR uni2835
ENCODING 10293
SWIDTH 600 0
DWIDTH 10 0
BBX 7 15 1 0
BITMAP
44
EE
44
00
44
AE
44
00
44
EA
44
00
44
AA
44
ENDCHAR
STARTCHAR uni2836
ENCODING 10294
SWIDTH 600 0
DWIDTH 10 0
BBX 7 15 1 0
BITMAP
44
AE
44
00
44
EE
44
00
44
EA
44
00
44
AA
44
ENDCHAR
STARTCHAR uni2837
ENCODING 10295
SWIDTH 600 0
DWIDTH 10 0
BBX 7 15 1 0
BITMAP
44
EE
44
00
44
EE
44
00
44
EA
44
00
44
AA
44
ENDCHAR
STARTCHAR uni2838
ENCODING 10296
SWIDTH 600 0
DWIDTH 10 0
BBX 7 15 1 0
BITMAP
44
AE
44
00
44
AE
44
00
44
AA
44
00
44
EA
44
ENDCHAR
STARTCHAR uni2839
ENCODING 10297
SWIDTH 600 0
DWIDTH 10 0
BBX 7 15 1 0
BITMAP
44
EE
44
00
44
AE
44
00
44
AA
44
00
44
EA
44
ENDCHAR
STARTCHAR uni283A
ENCODING 10298
SWIDTH 600 0
DWIDTH 10 0
BBX 7 15 1 0
BITMAP
44
AE
44
00
44
EE
44
00
44
AA
44
00
44
EA
44
ENDCHAR
STARTCHAR uni283B
ENCODING 10299
SWIDTH 600 0
DWIDTH 10 0
BBX 7 15 1 0
BITMAP
44
EE
44
00
44
EE
44
00
44
AA
44
00
44
EA
44
ENDCHAR
STARTCHAR uni283C
ENCODING 10300
SWIDTH 600 0
DWIDTH 10 0
BBX 7 15 1 0
BITMAP
44
AE
44
00
44
AE
44
00
44
EA
44
00
44
EA
44
ENDCHAR
STARTCHAR uni283D
ENCODING 10301
SWIDTH 600 0
DWIDTH 10 0
BBX 7 15 1 0
BITMAP
44
EE
44
00
44
AE
44
00
44
EA
44
00
44
EA
44
ENDCHAR
STARTCHAR uni283E
ENCODING 10302
SWIDTH 600 0
DWIDTH 10 0
BBX 7 15 1 0
BITMAP
44
AE
44
00
44
EE
44
00
44
EA
44
00
44
EA
44
ENDCHAR
STARTCHAR uni283F
ENCODING 10303
SWIDTH 600 0
DWIDTH 10 0
BBX 7 15 1 0
BITMAP
44
EE
44
00
44
EE
44
00
44
EA
44
00
44
EA
44
ENDCHAR
STARTCHAR uni2840
ENCODING 10304
SWIDTH 600 0
DWIDTH 10 0
BBX 7 15 1 0
BITMAP
44
AA
44
00
44
AA
44
00
44
AE
44
00
44
AA
44
ENDCHAR
STARTCHAR uni2841
ENCODING 10305
SWIDTH 600 0
DWIDTH 10 0
BBX 7 15 1 0
BITMAP
44
EA
44
00
44
AA
44
00
44
AE
44
00
44
AA
44
ENDCHAR
STARTCHAR uni2842
ENCODING 10306
SWIDTH 600 0
DWIDTH 10 0
BBX 7 15 1 0
BITMAP
44
AA
44
00
44
EA
44
00
44
AE
44
00
44
AA
44
ENDCHAR
STARTCHAR uni2843
ENCODING 10307
SWIDTH 600 0
DWIDTH 10 0
BBX 7 15 1 0
BITMAP
44
EA
44
00
44
EA
44
00
44
AE
44
00
44
AA
44
ENDCHAR
STARTCHAR uni2844
ENCODING 10308
SWIDTH 600 0
DWIDTH 10 0
BBX 7 15 1 0
BITMAP
44
AA
44
00
44
AA
44
00
44
EE
44
00
44
AA
44
ENDCHAR
STARTCHAR uni2845
ENCODING 10309
SWIDTH 600 0
DWIDTH 10 0
BBX 7 15 1 0
BITMAP
44
EA
44
00
44
AA
44
00
44
EE
44
00
44
AA
44
ENDCHAR
STARTCHAR uni2846
ENCODING 10310
SWIDTH 600 0
DWIDTH 10 0
BBX 7 15 1 0
BITMAP
44
AA
44
00
44
EA
44
00
44
EE
44
00
44
AA
44
ENDCHAR
STARTCHAR uni2847
ENCODING 10311
SWIDTH 600 0
DWIDTH 10 0
BBX 7 15 1 0
BITMAP
44
EA
44
00
44
EA
44
00
44
EE
44
00
44
AA
44
ENDCHAR
STARTCHAR uni2848
ENCODING 10312
SWIDTH 600 0
DWIDTH 10 0
BBX 7 15 1 0
BITMAP
44
AA
44
00
44
AA
44
00
44
AE
44
00
44
EA
44
ENDCHAR
STARTCHAR uni2849
ENCODING 10313
SWIDTH 600 0
DWIDTH 10 0
BBX 7 15 1 0
BITMAP
44
EA
44
00
44
AA
44
00
44
AE
44
00
44
EA
44
ENDCHAR
STARTCHAR uni284A
ENCODING 10314
SWIDTH 600 0
DWIDTH 10 0
BBX 7 15 1 0
BITMAP
44
AA
44
00
44
EA
44
00
44
AE
44
00
44
EA
44
ENDCHAR
STARTCHAR uni284B
ENCODING 10315
SWIDTH 600 0
DWIDTH 10 0
BBX 7 15 1 0
BITMAP
44
EA
44
00
44
EA
44
00
44
AE
44
00
44
EA
44
ENDCHAR
STARTCHAR uni284C
ENCODING 10316
SWIDTH 600 0
DWIDTH 10 0
BBX 7 15 1 0
BITMAP
44
AA
44
00
44
AA
44
00
44
EE
44
00
44
EA
44
ENDCHAR
STARTCHAR uni284D
ENCODING 10317
SWIDTH 600 0
DWIDTH 10 0
BBX 7 15 1 0
BITMAP
44
EA
44
00
44
AA
44
00
44
EE
44
00
44
EA
44
ENDCHAR
STARTCHAR uni284E
ENCODING 10318
SWIDTH 600 0
DWIDTH 10 0
BBX 7 15 1 0
BITMAP
44
AA
44
00
44
EA
44
00
44
EE
44
00
44
EA
44
ENDCHAR
STARTCHAR uni284F
ENCODING 10319
SWIDTH 600 0
DWIDTH 10 0
BBX 7 15 1 0
BITMAP
44
EA
44
00
44
EA
44
00
44
EE
44
00
44
EA
44
ENDCHAR
STARTCHAR uni2850
ENCODING 10320
SWIDTH 600 0
DWIDTH 10 0
BBX 7 15 1 0
BITMAP
44
AE
44
00
44
AA
44
00
44
AE
44
00
44
AA
44
ENDCHAR
STARTCHAR uni2851
ENCODING 10321
SWIDTH 600 0
DWIDTH 10 0
BBX 7 15 1 0
BITMAP
44
EE
44
00
44
AA
44
00
44
AE
44
00
44
AA
44
ENDCHAR
STARTCHAR uni2852
ENCODING 10322
SWIDTH 600 0
DWIDTH 10 0
BBX 7 15 1 0
BITMAP
44
AE
44
00
44
EA
44
00
44
AE
44
00
44
AA
44
ENDCHAR
STARTCHAR uni2853
ENCODING 10323
SWIDTH 600 0
DWIDTH 10 0
BBX 7 15 1 0
BITMAP
44
EE
44
00
44
EA
44
00
44
AE
44
00
44
AA
44
ENDCHAR
STARTCHAR uni2854
ENCODING 10324
SWIDTH 600 0
DWIDTH 10 0
BBX 7 15 1 0
BITMAP
44
AE
44
00
44
AA
44
00
44
EE
44
00
44
AA
44
ENDCHAR
STARTCHAR uni2855
ENCODING 10325
SWIDTH 600 0
DWIDTH 10 0
BBX 7 15 1 0
BITMAP
44
EE
44
00
44
AA
44
00
44
EE
44
00
44
AA
44
ENDCHAR
STARTCHAR uni2856
ENCODING 10326
SWIDTH 600 0
DWIDTH 10 0
BBX 7 15 1 0
BITMAP
44
AE
44
00
44
EA
44
00
44
EE
44
00
44
AA
44
ENDCHAR
STARTCHAR uni2857
ENCODING 10327
SWIDTH 600 0
DWIDTH 10 0
BBX 7 15 1 0
BITMAP
44
EE
44
00
44
EA
44
00
44
EE
44
00
44
AA
44
ENDCHAR
STARTCHAR uni2858
ENCODING 10328
SWIDTH 600 0
DWIDTH 10 0
BBX 7 15 1 0
BITMAP
44
AE
44
00
44
AA
44
00
44
AE
44
00
44
EA
44
ENDCHAR
STARTCHAR uni2859
ENCODING 10329
SWIDTH 600 0
DWIDTH 10 0
BBX 7 15 1 0
BITMAP
44
EE
44
00
44
AA
44
00
44
AE
44
00
44
EA
44
ENDCHAR
STARTCHAR uni285A
ENCODING 10330
SWIDTH 600 0
DWIDTH 10 0
BBX 7 15 1 0
BITMAP
44
AE
44
00
44
EA
44
00
44
AE
44
00
44
EA
44
ENDCHAR
STARTCHAR uni285B
ENCODING 10331
SWIDTH 600 0
DWIDTH 10 0
BBX 7 15 1 0
BITMAP
44
EE
44
00
44
EA
44
00
44
AE
44
00
44
EA
44
ENDCHAR
STARTCHAR uni285C
ENCODING 10332
SWIDTH 600 0
DWIDTH 10 0
BBX 7 15 1 0
BITMAP
44
AE
44
00
44
AA
44
00
44
EE
44
00
44
EA
44
ENDCHAR
STARTCHAR uni285D
ENCODING 10333
SWIDTH 600 0
DWIDTH 10 0
BBX 7 15 1 0
BITMAP
44
EE
44
00
44
AA
44
00
44
EE
44
00
44
EA
44
ENDCHAR
STARTCHAR uni285E
ENCODING 10334
SWIDTH 600 0
DWIDTH 10 0
BBX 7 15 1 0
BITMAP
44
AE
44
00
44
EA
44
00
44
EE
44
00
44
EA
44
ENDCHAR
STARTCHAR uni285F
ENCODING 10335
SWIDTH 600 0
DWIDTH 10 0
BBX 7 15 1 0
BITMAP
44
EE
44
00
44
EA
44
00
44
EE
44
00
44
EA
44
ENDCHAR
STARTCHAR uni2860
ENCODING 10336
SWIDTH 600 0
DWIDTH 10 0
BBX 7 15 1 0
BITMAP
44
AA
44
00
44
AE
44
00
44
AE
44
00
44
AA
44
ENDCHAR
STARTCHAR uni2861
ENCODING 10337
SWIDTH 600 0
DWIDTH 10 0
BBX 7 15 1 0
BITMAP
44
EA
44
00
44
AE
44
00
44
AE
44
00
44
AA
44
ENDCHAR
STARTCHAR uni2862
ENCODING 10338
SWIDTH 600 0
DWIDTH 10 0
BBX 7 15 1 0
BITMAP
44
AA
44
00
44
EE
44
00
44
AE
44
00
44
AA
44
ENDCHAR
STARTCHAR uni2863
ENCODING 10339
SWIDTH 600 0
DWIDTH 10 0
BBX 7 15 1 0
BITMAP
44
EA
44
00
44
EE
44
00
44
AE
44
00
44
AA
44
ENDCHAR
STARTCHAR uni2864
ENCODING 10340
SWIDTH 600 0
DWIDTH 10 0
BBX 7 15 1 0
BITMAP
44
AA
44
00
44
AE
44
00
44
EE
44
00
44
AA
44
ENDCHAR
STARTCHAR uni2865
ENCODING 10341
SWIDTH 600 0
DWIDTH 10 0
BBX 7 15 1 0
BITMAP
44
EA
44
00
44
AE
44
00
44
EE
44
00
44
AA
44
ENDCHAR
STARTCHAR uni2866
ENCODING 10342
SWIDTH 600 0
DWIDTH 10 0
BBX 7 15 1 0
BITMAP
44
AA
44
00
44
EE
44
00
44
EE
44
00
44
AA
44
ENDCHAR
STARTCHAR uni2867
ENCODING 10343
SWIDTH 600 0
DWIDTH 10 0
BBX 7 15 1 0
BITMAP
44
EA
44
00
44
EE
44
00
44
EE
44
00
44
AA
44
ENDCHAR
STARTCHAR uni2868
ENCODING 10344
SWIDTH 600 0
DWIDTH 10 0
BBX 7 15 1 0
BITMAP
44
AA
44
00
44
AE
44
00
44
AE
44
00
44
EA
44
ENDCHAR
STARTCHAR uni2869
ENCODING 10345
SWIDTH 600 0
DWIDTH 10 0
BBX 7 15 1 0
BITMAP
44
EA
44
00
44
AE
44
00
44
AE
44
00
44
EA
44
ENDCHAR
STARTCHAR uni286A
ENCODING 10346
SWIDTH 600 0
DWIDTH 10 0
BBX 7 15 1 0
BITMAP
44
AA
44
00
44
EE
44
00
44
AE
44
00
44
EA
44
ENDCHAR
STARTCHAR uni286B
ENCODING 10347
SWIDTH 600 0
DWIDTH 10 0
BBX 7 15 1 0
BITMAP
44
EA
44
00
44
EE
44
00
44
AE
44
00
44
EA
44
ENDCHAR
STARTCHAR uni286C
ENCODING 10348
SWIDTH 600 0
DWIDTH 10 0
BBX 7 15 1 0
BITMAP
44
AA
44
00
44
AE
44
00
44
EE
44
00
44
EA
44
ENDCHAR
STARTCHAR uni286D
ENCODING 10349
SWIDTH 600 0
DWIDTH 10 0
BBX 7 15 1 0
BITMAP
44
EA
44
00
44
AE
44
00
44
EE
44
00
44
EA
44
ENDCHAR
STARTCHAR uni286E
ENCODING 10350
SWIDTH 600 0
DWIDTH 10 0
BBX 7 15 1 0
BITMAP
44
AA
44
00
44
EE
44
00
44
EE
44
00
44
EA
44
ENDCHAR
STARTCHAR uni286F
ENCODING 10351
SWIDTH 600 0
DWIDTH 10 0
BBX 7 15 1 0
BITMAP
44
EA
44
00
44
EE
44
00
44
EE
44
00
44
EA
44
ENDCHAR
STARTCHAR uni2870
ENCODING 10352
SWIDTH 600 0
DWIDTH 10 0
BBX 7 15 1 0
BITMAP
44
AE
44
00
44
AE
44
00
44
AE
44
00
44
AA
44
ENDCHAR
STARTCHAR uni2871
ENCODING 10353
SWIDTH 600 0
DWIDTH 10 0
BBX 7 15 1 0
BITMAP
44
EE
44
00
44
AE
44
00
44
AE
44
00
44
AA
44
ENDCHAR
STARTCHAR uni2872
ENCODING 10354
SWIDTH 600 0
DWIDTH 10 0
BBX 7 15 1 0
BITMAP
44
AE
44
00
44
EE
44
00
44
AE
44
00
44
AA
44
ENDCHAR
STARTCHAR uni2873
ENCODING 10355
SWIDTH 600 0
DWIDTH 10 0
BBX 7 15 1 0
BITMAP
44
EE
44
00
44
EE
44
00
44
AE
44
00
44
AA
44
ENDCHAR
STARTCHAR uni2874
ENCODING 10356
SWIDTH 600 0
DWIDTH 10 0
BBX 7 15 1 0
BITMAP
44
AE
44
00
44
AE
44
00
44
EE
44
00
44
AA
44
ENDCHAR
STARTCHAR uni2875
ENCODING 10357
SWIDTH 600 0
DWIDTH 10 0
BBX 7 15 1 0
BITMAP
44
EE
44
00
44
AE
44
00
44
EE
44
00
44
AA
44
ENDCHAR
STARTCHAR uni2876
ENCODING 10358
SWIDTH 600 0
DWIDTH 10 0
BBX 7 15 1 0
BITMAP
44
AE
44
00
44
EE
44
00
44
EE
44
00
44
AA
44
ENDCHAR
STARTCHAR uni2877
ENCODING 10359
SWIDTH 600 0
DWIDTH 10 0
BBX 7 15 1 0
BITMAP
44
EE
44
00
44
EE
44
00
44
EE
44
00
44
AA
44
ENDCHAR
STARTCHAR uni2878
ENCODING 10360
SWIDTH 600 0
DWIDTH 10 0
BBX 7 15 1 0
BITMAP
44
AE
44
00
44
AE
44
00
44
AE
44
00
44
EA
44
ENDCHAR
STARTCHAR uni2879
ENCODING 10361
SWIDTH 600 0
DWIDTH 10 0
BBX 7 15 1 0
BITMAP
44
EE
44
00
44
AE
44
00
44
AE
44
00
44
EA
44
ENDCHAR
STARTCHAR uni287A
ENCODING 10362
SWIDTH 600 0
DWIDTH 10 0
BBX 7 15 1 0
BITMAP
44
AE
44
00
44
EE
44
00
44
AE
44
00
44
EA
44
ENDCHAR
STARTCHAR uni287B
ENCODING 10363
SWIDTH 600 0
DWIDTH 10 0
BBX 7 15 1 0
BITMAP
44
EE
44
00
44
EE
44
00
44
AE
44
00
44
EA
44
ENDCHAR
STARTCHAR uni287C
ENCODING 10364
SWIDTH 600 0
DWIDTH 10 0
BBX 7 15 1 0
BITMAP
44
AE
44
00
44
AE
44
00
44
EE
44
00
44
EA
44
ENDCHAR
STARTCHAR uni287D
ENCODING 10365
SWIDTH 600 0
DWIDTH 10 0
BBX 7 15 1 0
BITMAP
44
EE
44
00
44
AE
44
00
44
EE
44
00
44
EA
44
ENDCHAR
STARTCHAR uni287E
ENCODING 10366
SWIDTH 600 0
DWIDTH 10 0
BBX 7 15 1 0
BITMAP
44
AE
44
00
44
EE
44
00
44
EE
44
00
44
EA
44
ENDCHAR
STARTCHAR uni287F
ENCODING 10367
SWIDTH 600 0
DWIDTH 10 0
BBX 7 15 1 0
BITMAP
44
EE
44
00
44
EE
44
00
44
EE
44
00
44
EA
44
ENDCHAR
STARTCHAR uni2880
ENCODING 10368
SWIDTH 600 0
DWIDTH 10 0
BBX 7 15 1 0
BITMAP
44
AA
44
00
44
AA
44
00
44
AA
44
00
44
AE
44
ENDCHAR
STARTCHAR uni2881
ENCODING 10369
SWIDTH 600 0
DWIDTH 10 0
BBX 7 15 1 0
BITMAP
44
EA
44
00
44
AA
44
00
44
AA
44
00
44
AE
44
ENDCHAR
STARTCHAR uni2882
ENCODING 10370
SWIDTH 600 0
DWIDTH 10 0
BBX 7 15 1 0
BITMAP
44
AA
44
00
44
EA
44
00
44
AA
44
00
44
AE
44
ENDCHAR
STARTCHAR uni2883
ENCODING 10371
SWIDTH 600 0
DWIDTH 10 0
BBX 7 15 1 0
BITMAP
44
EA
44
00
44
EA
44
00
44
AA
44
00
44
AE
44
ENDCHAR
STARTCHAR uni2884
ENCODING 10372
SWIDTH 600 0
DWIDTH 10 0
BBX 7 15 1 0
BITMAP
44
AA
44
00
44
AA
44
00
44
EA
44
00
44
AE
44
ENDCHAR
STARTCHAR uni2885
ENCODING 10373
SWIDTH 600 0
DWIDTH 10 0
BBX 7 15 1 0
BITMAP
44
EA
44
00
44
AA
44
00
44
EA
44
00
44
AE
44
ENDCHAR
STARTCHAR uni2886
ENCODING 10374
SWIDTH 600 0
DWIDTH 10 0
BBX 7 15 1 0
BITMAP
44
AA
44
00
44
EA
44
00
44
EA
44
00
44
AE
44
ENDCHAR
STARTCHAR uni2887
ENCODING 10375
SWIDTH 600 0
DWIDTH 10 0
BBX 7 15 1 0
BITMAP
44
EA
44
00
44
EA
44
00
44
EA
44
00
44
AE
44
ENDCHAR
STARTCHAR uni2888
ENCODING 10376
SWIDTH 600 0
DWIDTH 10 0
BBX 7 15 1 0
BITMAP
44
AA
44
00
44
AA
44
00
44
AA
44
00
44
EE
44
ENDCHAR
STARTCHAR uni2889
ENCODING 10377
SWIDTH 600 0
DWIDTH 10 0
BBX 7 15 1 0
BITMAP
44
EA
44
00
44
AA
44
00
44
AA
44
00
44
EE
44
ENDCHAR
STARTCHAR uni288A
ENCODING 10378
SWIDTH 600 0
DWIDTH 10 0
BBX 7 15 1 0
BITMAP
44
AA
44
00
44
EA
44
00
44
AA
44
00
44
EE
44
ENDCHAR
STARTCHAR uni288B
ENCODING 10379
SWIDTH 600 0
DWIDTH 10 0
BBX 7 15 1 0
BITMAP
44
EA
44
00
44
EA
44
00
44
AA
44
00
44
EE
44
ENDCHAR
STARTCHAR uni288C
ENCODING 10380
SWIDTH 600 0
DWIDTH 10 0
BBX 7 15 1 0
BITMAP
44
AA
44
00
44
AA
44
00
44
EA
44
00
44
EE
44
ENDCHAR
STARTCHAR uni288D
ENCODING 10381
SWIDTH 600 0
DWIDTH 10 0
BBX 7 15 1 0
BITMAP
44
EA
44
00
44
AA
44
00
44
EA
44
00
44
EE
44
ENDCHAR
STARTCHAR uni288E
ENCODING 10382
SWIDTH 600 0
DWIDTH 10 0
BBX 7 15 1 0
BITMAP
44
AA
44
00
44
EA
44
00
44
EA
44
00
44
EE
44
ENDCHAR
STARTCHAR uni288F
ENCODING 10383
SWIDTH 600 0
DWIDTH 10 0
BBX 7 15 1 0
BITMAP
44
EA
44
00
44
EA
44
00
44
EA
44
00
44
EE
44
ENDCHAR
STARTCHAR uni2890
ENCODING 10384
SWIDTH 600 0
DWIDTH 10 0
BBX 7 15 1 0
BITMAP
44
AE
44
00
44
AA
44
00
44
AA
44
00
44
AE
44
ENDCHAR
STARTCHAR uni2891
ENCODING 10385
SWIDTH 600 0
DWIDTH 10 0
BBX 7 15 1 0
BITMAP
44
EE
44
00
44
AA
44
00
44
AA
44
00
44
AE
44
ENDCHAR
STARTCHAR uni2892
ENCODING 10386
SWIDTH 600 0
DWIDTH 10 0
BBX 7 15 1 0
BITMAP
44
AE
44
00
44
EA
44
00
44
AA
44
00
44
AE
44
ENDCHAR
STARTCHAR uni2893
ENCODING 10387
SWIDTH 600 0
DWIDTH 10 0
BBX 7 15 1 0
BITMAP
44
EE
44
00
44
EA
44
00
44
AA
44
00
44
AE
44
ENDCHAR
STARTCHAR uni2894
ENCODING 10388
SWIDTH 600 0
DWIDTH 10 0
BBX 7 15 1 0
BITMAP
44
AE
44
00
44
AA
44
00
44
EA
44
00
44
AE
44
ENDCHAR
STARTCHAR uni2895
ENCODING 10389
SWIDTH 600 0
DWIDTH 10 0
BBX 7 15 1 0
BITMAP
44
EE
44
00
44
AA
44
00
44
EA
44
00
44
AE
44
ENDCHAR
STARTCHAR uni2896
ENCODING 10390
SWIDTH 600 0
DWIDTH 10 0
BBX 7 15 1 0
BITMAP
44
AE
44
00
44
EA
44
00
44
EA
44
00
44
AE
44
ENDCHAR
STARTCHAR uni2897
ENCODING 10391
SWIDTH 600 0
DWIDTH 10 0
BBX 7 15 1 0
BITMAP
44
EE
44
00
44
EA
44
00
44
EA
44
00
44
AE
44
ENDCHAR
STARTCHAR uni2898
ENCODING 10392
SWIDTH 600 0
DWIDTH 10 0
BBX 7 15 1 0
BITMAP
44
AE
44
00
44
AA
44
00
44
AA
44
00
44
EE
44
ENDCHAR
STARTCHAR uni2899
ENCODING 10393
SWIDTH 600 0
DWIDTH 10 0
BBX 7 15 1 0
BITMAP
44
EE
44
00
44
AA
44
00
44
AA
44
00
44
EE
44
ENDCHAR
STARTCHAR uni289A
ENCODING 10394
SWIDTH 600 0
DWIDTH 10 0
BBX 7 15 1 0
BITMAP
44
AE
44
00
44
EA
44
00
44
AA
44
00
44
EE
44
ENDCHAR
STARTCHAR uni289B
ENCODING 10395
SWIDTH 600 0
DWIDTH 10 0
BBX 7 15 1 0
BITMAP
44
EE
44
00
44
EA
44
00
44
AA
44
00
44
EE
44
ENDCHAR
STARTCHAR uni289C
ENCODING 10396
SWIDTH 600 0
DWIDTH 10 0
BBX 7 15 1 0
BITMAP
44
AE
44
00
44
AA
44
00
44
EA
44
00
44
EE
44
ENDCHAR
STARTCHAR uni289D
ENCODING 10397
SWIDTH 600 0
DWIDTH 10 0
BBX 7 15 1 0
BITMAP
44
EE
44
00
44
AA
44
00
44
EA
44
00
44
EE
44
ENDCHAR
STARTCHAR uni289E
ENCODING 10398
SWIDTH 600 0
DWIDTH 10 0
BBX 7 15 1 0
BITMAP
44
AE
44
00
44
EA
44
00
44
EA
44
00
44
EE
44
ENDCHAR
STARTCHAR uni289F
ENCODING 10399
SWIDTH 600 0
DWIDTH 10 0
BBX 7 15 1 0
BITMAP
44
EE
44
00
44
EA
44
00
44
EA
44
00
44
EE
44
ENDCHAR
STARTCHAR uni28A0
ENCODING 10400
SWIDTH 600 0
DWIDTH 10 0
BBX 7 15 1 0
BITMAP
44
AA
44
00
44
AE
44
00
44
AA
44
00
44
AE
44
ENDCHAR
STARTCHAR uni28A1
ENCODING 10401
SWIDTH 600 0
DWIDTH 10 0
BBX 7 15 1 0
BITMAP
44
EA
44
00
44
AE
44
00
44
AA
44
00
44
AE
44
ENDCHAR
STARTCHAR uni28A2
ENCODING 10402
SWIDTH 600 0
DWIDTH 10 0
BBX 7 15 1 0
BITMAP
44
AA
44
00
44
EE
44
00
44
AA
44
00
44
AE
44
ENDCHAR
STARTCHAR uni28A3
ENCODING 10403
SWIDTH 600 0
DWIDTH 10 0
BBX 7 15 1 0
BITMAP
44
EA
44
00
44
EE
44
00
44
AA
44
00
44
AE
44
ENDCHAR
STARTCHAR uni28A4
ENCODING 10404
SWIDTH 600 0
DWIDTH 10 0
BBX 7 15 1 0
BITMAP
44
AA
44
00
44
AE
44
00
44
EA
44
00
44
AE
44
ENDCHAR
STARTCHAR uni28A5
ENCODING 10405
SWIDTH 600 0
DWIDTH 10 0
BBX 7 15 1 0
BITMAP
44
EA
44
00
44
AE
44
00
44
EA
44
00
44
AE
44
ENDCHAR
STARTCHAR uni28A6
ENCODING 10406
SWIDTH 600 0
DWIDTH 10 0
BBX 7 15 1 0
BITMAP
44
AA
44
00
44
EE
44
00
44
EA
44
00
44
AE
44
ENDCHAR
STARTCHAR uni28A7
ENCODING 10407
SWIDTH 600 0
DWIDTH 10 0
BBX 7 15 1 0
BITMAP
44
EA
44
00
44
EE
44
00
44
EA
44
00
44
AE
44
ENDCHAR
STARTCHAR uni28A8
ENCODING 10408
SWIDTH 600 0
DWIDTH 10 0
BBX 7 15 1 0
BITMAP
44
AA
44
00
44
AE
44
00
44
AA
44
00
44
EE
44
ENDCHAR
STARTCHAR uni28A9
ENCODING 10409
SWIDTH 600 0
DWIDTH 10 0
BBX 7 15 1 0
BITMAP
44
EA
44
00
44
AE
44
00
44
AA
44
00
44
EE
44
ENDCHAR
STARTCHAR uni28AA
ENCODING 10410
SWIDTH 600 0
DWIDTH 10 0
BBX 7 15 1 0
BITMAP
44
AA
44
00
44
EE
44
00
44
AA
44
00
44
EE
44
ENDCHAR
STARTCHAR uni28AB
ENCODING 10411
SWIDTH 600 0
DWIDTH 10 0
BBX 7 15 1 0
BITMAP
44
EA
44
00
44
EE
44
00
44
AA
44
00
44
EE
44
ENDCHAR
STARTCHAR uni28AC
ENCODING 10412
SWIDTH 600 0
DWIDTH 10 0
BBX 7 15 1 0
BITMAP
44
AA
44
00
44
AE
44
00
44
EA
44
00
44
EE
44
ENDCHAR
STARTCHAR uni28AD
ENCODING 10413
SWIDTH 600 0
DWIDTH 10 0
BBX 7 15 1 0
BITMAP
44
EA
44
00
44
AE
44
00
44
EA
44
00
44
EE
44
ENDCHAR
STARTCHAR uni28AE
ENCODING 10414
SWIDTH 600 0
DWIDTH 10 0
BBX 7 15 1 0
BITMAP
44
AA
44
00
44
EE
44
00
44
EA
44
00
44
EE
44
ENDCHAR
STARTCHAR uni28AF
ENCODING 10415
SWIDTH 600 0
DWIDTH 10 0
BBX 7 15 1 0
BITMAP
44
EA
44
00
44
EE
44
00
44
EA
44
00
44
EE
44
ENDCHAR
STARTCHAR uni28B0
ENCODING 10416
SWIDTH 600 0
DWIDTH 10 0
BBX 7 15 1 0
BITMAP
44
AE
44
00
44
AE
44
00
44
AA
44
00
44
AE
44
ENDCHAR
STARTCHAR uni28B1
ENCODING 10417
SWIDTH 600 0
DWIDTH 10 0
BBX 7 15 1 0
BITMAP
44
EE
44
00
44
AE
44
00
44
AA
44
00
44
AE
44
ENDCHAR
STARTCHAR uni28B2
ENCODING 10418
SWIDTH 600 0
DWIDTH 10 0
BBX 7 15 1 0
BITMAP
44
AE
44
00
44
EE
44
00
44
AA
44
00
44
AE
44
ENDCHAR
STARTCHAR uni28B3
ENCODING 10419
SWIDTH 600 0
DWIDTH 10 0
BBX 7 15 1 0
BITMAP
44
EE
44
00
44
EE
44
00
44
AA
44
00
44
AE
44
ENDCHAR
STARTCHAR uni28B4
ENCODING 10420
SWIDTH 600 0
DWIDTH 10 0
BBX 7 15 1 0
BITMAP
44
AE
44
00
44
AE
44
00
44
EA
44
00
44
AE
44
ENDCHAR
STARTCHAR uni28B5
ENCODING 10421
SWIDTH 600 0
DWIDTH 10 0
BBX 7 15 1 0
BITMAP
44
EE
44
00
44
AE
44
00
44
EA
44
00
44
AE
44
ENDCHAR
STARTCHAR uni28B6
ENCODING 10422
SWIDTH 600 0
DWIDTH 10 0
BBX 7 15 1 0
BITMAP
44
AE
44
00
44
EE
44
00
44
EA
44
00
44
AE
44
ENDCHAR
STARTCHAR uni28B7
ENCODING 10423
SWIDTH 600 0
DWIDTH 10 0
BBX 7 15 1 0
BITMAP
44
EE
44
00
44
EE
44
00
44
EA
44
00
44
AE
44
ENDCHAR
STARTCHAR uni28B8
ENCODING 10424
SWIDTH 600 0
DWIDTH 10 0
BBX 7 15 1 0
BITMAP
44
AE
44
00
44
AE
44
00
44
AA
44
00
44
EE
44
ENDCHAR
STARTCHAR uni28B9
ENCODING 10425
SWIDTH 600 0
DWIDTH 10 0
BBX 7 15 1 0
BITMAP
44
EE
44
00
44
AE
44
00
44
AA
44
00
44
EE
44
ENDCHAR
STARTCHAR uni28BA
ENCODING 10426
SWIDTH 600 0
DWIDTH 10 0
BBX 7 15 1 0
BITMAP
44
AE
44
00
44
EE
44
00
44
AA
44
00
44
EE
44
ENDCHAR
STARTCHAR uni28BB
ENCODING 10427
SWIDTH 600 0
DWIDTH 10 0
BBX 7 15 1 0
BITMAP
44
EE
44
00
44
EE
44
00
44
AA
44
00
44
EE
44
ENDCHAR
STARTCHAR uni28BC
ENCODING 10428
SWIDTH 600 0
DWIDTH 10 0
BBX 7 15 1 0
BITMAP
44
AE
44
00
44
AE
44
00
44
EA
44
00
44
EE
44
ENDCHAR
STARTCHAR uni28BD
ENCODING 10429
SWIDTH 600 0
DWIDTH 10 0
BBX 7 15 1 0
BITMAP
44
EE
44
00
44
AE
44
00
44
EA
44
00
44
EE
44
ENDCHAR
STARTCHAR uni28BE
ENCODING 10430
SWIDTH 600 0
DWIDTH 10 0
BBX 7 15 1 0
BITMAP
44
AE
44
00
44
EE
44
00
44
EA
44
00
44
EE
44
ENDCHAR
STARTCHAR uni28BF
ENCODING 10431
SWIDTH 600 0
DWIDTH 10 0
BBX 7 15 1 0
BITMAP
44
EE
44
00
44
EE
44
00
44
EA
44
00
44
EE
44
ENDCHAR
STARTCHAR uni28C0
ENCODING 10432
SWIDTH 600 0
DWIDTH 10 0
BBX 7 15 1 0
BITMAP
44
AA
44
00
44
AA
44
00
44
AE
44
00
44
AE
44
ENDCHAR
STARTCHAR uni28C1
ENCODING 10433
SWIDTH 600 0
DWIDTH 10 0
BBX 7 15 1 0
BITMAP
44
EA
44
00
44
AA
44
00
44
AE
44
00
44
AE
44
ENDCHAR
STARTCHAR uni28C2
ENCODING 10434
SWIDTH 600 0
DWIDTH 10 0
BBX 7 15 1 0
BITMAP
44
AA
44
00
44
EA
44
00
44
AE
44
00
44
AE
44
ENDCHAR
STARTCHAR uni28C3
ENCODING 10435
SWIDTH 600 0
DWIDTH 10 0
BBX 7 15 1 0
BITMAP
44
EA
44
00
44
EA
44
00
44
AE
44
00
44
AE
44
ENDCHAR
STARTCHAR uni28C4
ENCODING 10436
SWIDTH 600 0
DWIDTH 10 0
BBX 7 15 1 0
BITMAP
44
AA
44
00
44
AA
44
00
44
EE
44
00
44
AE
44
ENDCHAR
STARTCHAR uni28C5
ENCODING 10437
SWIDTH 600 0
DWIDTH 10 0
BBX 7 15 1 0
BITMAP
44
EA
44
00
44
AA
44
00
44
EE
44
00
44
AE
44
ENDCHAR
STARTCHAR uni28C6
ENCODING 10438
SWIDTH 600 0
DWIDTH 10 0
BBX 7 15 1 0
BITMAP
44
AA
44
00
44
EA
44
00
44
EE
44
00
44
AE
44
ENDCHAR
STARTCHAR uni28C7
ENCODING 10439
SWIDTH 600 0
DWIDTH 10 0
BBX 7 15 1 0
BITMAP
44
EA
44
00
44
EA
44
00
44
EE
44
00
44
AE
44
ENDCHAR
STARTCHAR uni28C8
ENCODING 10440
SWIDTH 600 0
DWIDTH 10 0
BBX 7 15 1 0
BITMAP
44
AA
44
00
44
AA
44
00
44
AE
44
00
44
EE
44
ENDCHAR
STARTCHAR uni28C9
ENCODING 10441
SWIDTH 600 0
DWIDTH 10 0
BBX 7 15 1 0
BITMAP
44
EA
44
00
44
AA
44
00
44
AE
44
00
44
EE
44
ENDCHAR
STARTCHAR uni28CA
ENCODING 10442
SWIDTH 600 0
DWIDTH 10 0
BBX 7 15 1 0
BITMAP
44
AA
44
00
44
EA
44
00
44
AE
44
00
44
EE
44
ENDCHAR
STARTCHAR uni28CB
ENCODING 10443
SWIDTH 600 0
DWIDTH 10 0
BBX 7 15 1 0
BITMAP
44
EA
44
00
44
EA
44
00
44
AE
44
00
44
EE
44
ENDCHAR
STARTCHAR uni28CC
ENCODING 10444
SWIDTH 600 0
DWIDTH 10 0
BBX 7 15 1 0
BITMAP
44
AA
44
00
44
AA
44
00
44
EE
44
00
44
EE
44
ENDCHAR
STARTCHAR uni28CD
ENCODING 10445
SWIDTH 600 0
DWIDTH 10 0
BBX 7 15 1 0
BITMAP
44
EA
44
00
44
AA
44
00
44
EE
44
00
44
EE
44
ENDCHAR
STARTCHAR uni28CE
ENCODING 10446
SWIDTH 600 0
DWIDTH 10 0
BBX 7 15 1 0
BITMAP
44
AA
44
00
44
EA
44
00
44
EE
44
00
44
EE
44
ENDCHAR
STARTCHAR uni28CF
ENCODING 10447
SWIDTH 600 0
DWIDTH 10 0
BBX 7 15 1 0
BITMAP
44
EA
44
00
44
EA
44
00
44
EE
44
00
44
EE
44
ENDCHAR
STARTCHAR uni28D0
ENCODING 10448
SWIDTH 600 0
DWIDTH 10 0
BBX 7 15 1 0
BITMAP
44
AE
44
00
44
AA
44
00
44
AE
44
00
44
AE
44
ENDCHAR
STARTCHAR uni28D1
ENCODING 10449
SWIDTH 600 0
DWIDTH 10 0
BBX 7 15 1 0
BITMAP
44
EE
44
00
44
AA
44
00
44
AE
44
00
44
AE
44
ENDCHAR
STARTCHAR uni28D2
ENCODING 10450
SWIDTH 600 0
DWIDTH 10 0
BBX 7 15 1 0
BITMAP
44
AE
44
00
44
EA
44
00
44
AE
44
00
44
AE
44
ENDCHAR
STARTCHAR uni28D3
ENCODING 10451
SWIDTH 600 0
DWIDTH 10 0
BBX 7 15 1 0
BITMAP
44
EE
44
00
44
EA
44
00
44
AE
44
00
44
AE
44
ENDCHAR
STARTCHAR uni28D4
ENCODING 10452
SWIDTH 600 0
DWIDTH 10 0
BBX 7 15 1 0
BITMAP
44
AE
44
00
44
AA
44
00
44
EE
44
00
44
AE
44
ENDCHAR
STARTCHAR uni28D5
ENCODING 10453
SWIDTH 600 0
DWIDTH 10 0
BBX 7 15 1 0
BITMAP
44
EE
44
00
44
AA
44
00
44
EE
44
00
44
AE
44
ENDCHAR
STARTCHAR uni28D6
ENCODING 10454
SWIDTH 600 0
DWIDTH 10 0
BBX 7 15 1 0
BITMAP
44
AE
44
00
44
EA
44
00
44
EE
44
00
44
AE
44
ENDCHAR
STARTCHAR uni28D7
ENCODING 10455
SWIDTH 600 0
DWIDTH 10 0
BBX 7 15 1 0
BITMAP
44
EE
44
00
44
EA
44
00
44
EE
44
00
44
AE
44
ENDCHAR
STARTCHAR uni28D8
ENCODING 10456
SWIDTH 600 0
DWIDTH 10 0
BBX 7 15 1 0
BITMAP
44
AE
44
00
44
AA
44
00
44
AE
44
00
44
EE
44
ENDCHAR
STARTCHAR uni28D9
ENCODING 10457
SWIDTH 600 0
DWIDTH 10 0
BBX 7 15 1 0
BITMAP
44
EE
44
00
44
AA
44
00
44
AE
44
00
44
EE
44
ENDCHAR
STARTCHAR uni28DA
ENCODING 10458
SWIDTH 600 0
DWIDTH 10 0
BBX 7 15 1 0
BITMAP
44
AE
44
00
44
EA
44
00
44
AE
44
00
44
EE
44
ENDCHAR
STARTCHAR uni28DB
ENCODING 10459
SWIDTH 600 0
DWIDTH 10 0
BBX 7 15 1 0
BITMAP
44
EE
44
00
44
EA
44
00
44
AE
44
00
44
EE
44
ENDCHAR
STARTCHAR uni28DC
ENCODING 10460
SWIDTH 600 0
DWIDTH 10 0
BBX 7 15 1 0
BITMAP
44
AE
44
00
44
AA
44
00
44
EE
44
00
44
EE
44
ENDCHAR
STARTCHAR uni28DD
ENCODING 10461
SWIDTH 600 0
DWIDTH 10 0
BBX 7 15 1 0
BITMAP
44
EE
44
00
44
AA
44
00
44
EE
44
00
44
EE
44
ENDCHAR
STARTCHAR uni28DE
ENCODING 10462
SWIDTH 600 0
DWIDTH 10 0
BBX 7 15 1 0
BITMAP
44
AE
44
00
44
EA
44
00
44
EE
44
00
44
EE
44
ENDCHAR
STARTCHAR uni28DF
ENCODING 10463
SWIDTH 600 0
DWIDTH 10 0
BBX 7 15 1 0
BITMAP
44
EE
44
00
44
EA
44
00
44
EE
44
00
44
EE
44
ENDCHAR
STARTCHAR uni28E0
ENCODING 10464
SWIDTH 600 0
DWIDTH 10 0
BBX 7 15 1 0
BITMAP
44
AA
44
00
44
AE
44
00
44
AE
44
00
44
AE
44
ENDCHAR
STARTCHAR uni28E1
ENCODING 10465
SWIDTH 600 0
DWIDTH 10 0
BBX 7 15 1 0
BITMAP
44
EA
44
00
44
AE
44
00
44
AE
44
00
44
AE
44
ENDCHAR
STARTCHAR uni28E2
ENCODING 10466
SWIDTH 600 0
DWIDTH 10 0
BBX 7 15 1 0
BITMAP
44
AA
44
00
44
EE
44
00
44
AE
44
00
44
AE
44
ENDCHAR
STARTCHAR uni28E3
ENCODING 10467
SWIDTH 600 0
DWIDTH 10 0
BBX 7 15 1 0
BITMAP
44
EA
44
00
44
EE
44
00
44
AE
44
00
44
AE
44
ENDCHAR
STARTCHAR uni28E4
ENCODING 10468
SWIDTH 600 0
DWIDTH 10 0
BBX 7 15 1 0
BITMAP
44
AA
44
00
44
AE
44
00
44
EE
44
00
44
AE
44
ENDCHAR
STARTCHAR uni28E5
ENCODING 10469
SWIDTH 600 0
DWIDTH 10 0
BBX 7 15 1 0
BITMAP
44
EA
44
00
44
AE
44
00
44
EE
44
00
44
AE
44
ENDCHAR
STARTCHAR uni28E6
ENCODING 10470
SWIDTH 600 0
DWIDTH 10 0
BBX 7 15 1 0
BITMAP
44
AA
44
00
44
EE
44
00
44
EE
44
00
44
AE
44
ENDCHAR
STARTCHAR uni28E7
ENCODING 10471
SWIDTH 600 0
DWIDTH 10 0
BBX 7 15 1 0
BITMAP
44
EA
44
00
44
EE
44
00
44
EE
44
00
44
AE
44
ENDCHAR
STARTCHAR uni28E8
ENCODING 10472
SWIDTH 600 0
DWIDTH 10 0
BBX 7 15 1 0
BITMAP
44
AA
44
00
44
AE
44
00
44
AE
44
00
44
EE
44
ENDCHAR
STARTCHAR uni28E9
ENCODING 10473
SWIDTH 600 0
DWIDTH 10 0
BBX 7 15 1 0
BITMAP
44
EA
44
00
44
AE
44
00
44
AE
44
00
44
EE
44
ENDCHAR
STARTCHAR uni28EA
ENCODING 10474
SWIDTH 600 0
DWIDTH 10 0
BBX 7 15 1 0
BITMAP
44
AA
44
00
44
EE
44
00
44
AE
44
00
44
EE
44
ENDCHAR
STARTCHAR uni28EB
ENCODING 10475
SWIDTH 600 0
DWIDTH 10 0
BBX 7 15 1 0
BITMAP
44
EA
44
00
44
EE
44
00
44
AE
44
00
44
EE
44
ENDCHAR
STARTCHAR uni28EC
ENCODING 10476
SWIDTH 600 0
DWIDTH 10 0
BBX 7 15 1 0
BITMAP
44
AA
44
00
44
AE
44
00
44
EE
44
00
44
EE
44
ENDCHAR
STARTCHAR uni28ED
ENCODING 10477
SWIDTH 600 0
DWIDTH 10 0
BBX 7 15 1 0
BITMAP
44
EA
44
00
44
AE
44
00
44
EE
44
00
44
EE
44
ENDCHAR
STARTCHAR uni28EE
ENCODING 10478
SWIDTH 600 0
DWIDTH 10 0
BBX 7 15 1 0
BITMAP
44
AA
44
00
44
EE
44
00
44
EE
44
00
44
EE
44
ENDCHAR
STARTCHAR uni28EF
ENCODING 10479
SWIDTH 600 0
DWIDTH 10 0
BBX 7 15 1 0
BITMAP
44
EA
44
00
44
EE
44
00
44
EE
44
00
44
EE
44
ENDCHAR
STARTCHAR uni28F0
ENCODING 10480
SWIDTH 600 0
DWIDTH 10 0
BBX 7 15 1 0
BITMAP
44
AE
44
00
44
AE
44
00
44
AE
44
00
44
AE
44
ENDCHAR
STARTCHAR uni28F1
ENCODING 10481
SWIDTH 600 0
DWIDTH 10 0
BBX 7 15 1 0
BITMAP
44
EE
44
00
44
AE
44
00
44
AE
44
00
44
AE
44
ENDCHAR
STARTCHAR uni28F2
ENCODING 10482
SWIDTH 600 0
DWIDTH 10 0
BBX 7 15 1 0
BITMAP
44
AE
44
00
44
EE
44
00
44
AE
44
00
44
AE
44
ENDCHAR
STARTCHAR uni28F3
ENCODING 10483
SWIDTH 600 0
DWIDTH 10 0
BBX 7 15 1 0
BITMAP
44
EE
44
00
44
EE
44
00
44
AE
44
00
44
AE
44
ENDCHAR
STARTCHAR uni28F4
ENCODING 10484
SWIDTH 600 0
DWIDTH 10 0
BBX 7 15 1 0
BITMAP
44
AE
44
00
44
AE
44
00
44
EE
44
00
44
AE
44
ENDCHAR
STARTCHAR uni28F5
ENCODING 10485
SWIDTH 600 0
DWIDTH 10 0
BBX 7 15 1 0
BITMAP
44
EE
44
00
44
AE
44
00
44
EE
44
00
44
AE
44
ENDCHAR
STARTCHAR uni28F6
ENCODING 10486
SWIDTH 600 0
DWIDTH 10 0
BBX 7 15 1 0
BITMAP
44
AE
44
00
44
EE
44
00
44
EE
44
00
44
AE
44
ENDCHAR
STARTCHAR uni28F7
ENCODING 10487
SWIDTH 600 0
DWIDTH 10 0
BBX 7 15 1 0
BITMAP
44
EE
44
00
44
EE
44
00
44
EE
44
00
44
AE
44
ENDCHAR
STARTCHAR uni28F8
ENCODING 10488
SWIDTH 600 0
DWIDTH 10 0
BBX 7 15 1 0
BITMAP
44
AE
44
00
44
AE
44
00
44
AE
44
00
44
EE
44
ENDCHAR
STARTCHAR uni28F9
ENCODING 10489
SWIDTH 600 0
DWIDTH 10 0
BBX 7 15 1 0
BITMAP
44
EE
44
00
44
AE
44
00
44
AE
44
00
44
EE
44
ENDCHAR
STARTCHAR uni28FA
ENCODING 10490
SWIDTH 600 0
DWIDTH 10 0
BBX 7 15 1 0
BITMAP
44
AE
44
00
44
EE
44
00
44
AE
44
00
44
EE
44
ENDCHAR
STARTCHAR uni28FB
ENCODING 10491
SWIDTH 600 0
DWIDTH 10 0
BBX 7 15 1 0
BITMAP
44
EE
44
00
44
EE
44
00
44
AE
44
00
44
EE
44
ENDCHAR
STARTCHAR uni28FC
ENCODING 10492
SWIDTH 600 0
DWIDTH 10 0
BBX 7 15 1 0
BITMAP
44
AE
44
00
44
AE
44
00
44
EE
44
00
44
EE
44
ENDCHAR
STARTCHAR uni28FD
ENCODING 10493
SWIDTH 600 0
DWIDTH 10 0
BBX 7 15 1 0
BITMAP
44
EE
44
00
44
AE
44
00
44
EE
44
00
44
EE
44
ENDCHAR
STARTCHAR uni28FE
ENCODING 10494
SWIDTH 600 0
DWIDTH 10 0
BBX 7 15 1 0
BITMAP
44
AE
44
00
44
EE
44
00
44
EE
44
00
44
EE
44
ENDCHAR
STARTCHAR uni28FF
ENCODING 10495
SWIDTH 600 0
DWIDTH 10 0
BBX 7 15 1 0
BITMAP
44
EE
44
00
44
EE
44
00
44
EE
44
00
44
EE
44
ENDCHAR
ENDFONT
